<svg xmlns="http://www.w3.org/2000/svg" xmlns:xlink="http://www.w3.org/1999/xlink" version="1.1" id="Layer_1" x="0px" y="0px" viewBox="0 0 512 512" style="enable-background:new 0 0 512 512;" xml:space="preserve" class="">
<!-- <style type="text/css">
	.st0{fill:#7FC5FE;}
	.st1{fill:#997FFE;}
	.st2{fill:#8BA6FE;}
	.st3{fill:#9C78FE;}
	.st4{fill:#89B0FE;}
	.st5{fill:#9395FE;}
	.st6{fill:#82BDFE;}
	.st7{fill:#9B8BFE;}
	.st8{fill:#89ACFE;}
	.st9{fill:#90A0FE;}
	.st10{fill:#85B7FE;}
	.st11{fill:#9883FE;}
	.st12{fill:#948EFE;}
	.st13{fill:#9C7CFE;}
</style> -->
<style>
	path{
		fill:black;
	}
</style>
<g>
	<path class="st0" d="M468.6,7.4c2.8,1.8,6.1,2.7,8.6,5.2c4,4,6.2,8.7,6.2,14.4c0,13.9,0,27.8,0,41.6c-0.1,11.7-8.4,20.1-20.1,20.1   c-21.3,0.1-42.6,0.1-63.8,0c-11.5,0-19.8-7.9-19.8-19.3c0-14.3-1.1-28.6-0.2-42.9c0.6-9.4,4.9-15.6,13.9-18.5   c0.4-0.1,0.7-0.5,1.1-0.8C419.2,7.4,443.9,7.4,468.6,7.4z M431.7,22.1c-10.5,0-21,0.1-31.4,0c-4.3-0.1-6.5,1.9-6.5,6   c-0.1,13.4-0.1,26.8,0,40.2c0,3.5,1.7,5.8,5.7,5.8c21.1,0,42.2,0,63.3,0c4.1,0,5.9-2,5.8-6c0-13.4,0-26.8,0-40.2c0-4-1.8-5.8-6-5.8   C452.3,22.2,442,22.1,431.7,22.1z"/>
	<path class="st1" d="M167.4,412.9c0.7,9.5,0.7,9.5,10.5,9.5c50.6,0,101.2-0.1,151.7,0.1c4.7,0,6.3-1.2,5.8-5.9   c-0.4-3.6,0.1-7.4,0.2-11.1c4.8,0,9.5,0,14.3,0c0,17.6,0,35.2,0,52.8c-4.8,0-9.5,0-14.3,0c-0.1-5.9-0.3-11.7-0.2-17.6   c0-2.8-0.8-3.7-3.7-3.7c-53.5,0.1-107,0.1-160.5,0c-2.9,0-3.7,0.9-3.7,3.7c0.1,5.9-0.1,11.7-0.1,17.6c-4.8,0-9.6-0.3-14.4,0.9   c0-15.4,0-30.9,0-46.3C157.8,412.9,162.6,412.9,167.4,412.9z"/>
	<path class="st2" d="M335.7,239.8c-0.6-6.5-0.6-6.5-7.5-6.5c-51.7,0-103.5,0-155.2-0.1c-4.1,0-5.7,0.9-5.4,5.3   c0.4,5.7,0,11.4-0.1,17.1c-4.8,0-9.6,0-14.4,0c0-16.7,0-33.3,0-50c4.8,0,9.6,0,14.4,0c0.1,2.8,0.4,5.6,0.1,8.3   c-0.4,4,1.3,4.8,5,4.8c18.2-0.2,36.4-0.1,54.5-0.1c34.5,0,69,0,103.5,0c1.8,0,4.2,1,5-1.9c4.8,0,9.5,0,14.3,0c0,7.7,0,15.4,0,23.1   C345.2,239.8,340.4,239.8,335.7,239.8z"/>
	<path class="st3" d="M153.1,459.2c4.7-1.3,9.6-0.9,14.4-0.9c0.1,4.6,0.5,9.3,0.1,13.9c-1,11.1,7.1,17.7,17.6,17.6   c29.5-0.3,58.9-0.1,88.4-0.1c15.3,0,30.5,0.1,45.8,0c10.2-0.1,16-5.9,16.1-16.1c0-5.1,0.2-10.2,0.3-15.2c4.8,0,9.5,0,14.3,0   c0.1,8.6,0.9,17.1-1.6,25.5c-3.4,11.3-13.8,19.9-25.5,19.9c-47.5,0.1-95,0.2-142.5,0c-14.8-0.1-27.4-13.5-27.4-28.3   C152.9,470,153,464.6,153.1,459.2z"/>
	<path class="st4" d="M167.4,205.5c-4.8,0-9.6,0-14.4,0c-0.7-17.2,11.9-30.6,29.2-30.6c46.3-0.1,92.5,0,138.8,0   c12.9,0,24.5,8.5,27.2,19.5c-5,0.5-10.2-1-15.1,1c-3.9-4.6-8.9-5.9-14.9-5.9c-44.6,0.1-89.1,0.1-133.7,0.1   C173.3,189.6,168.3,194.3,167.4,205.5z"/>
	<path class="st5" d="M282.1,278.7c0.2,13.1,1,26.2-0.4,39.2c-0.8,7.3-10.5,15.8-18.6,15.6c-21.6-0.5-43.2-0.1-64.8-0.2   c-11.4,0-19.4-7.2-20.1-18.6c-0.5-7.4,0.1-14.8,0.1-22.2c4.8,0,9.5,0,14.3,0c0,6.3,0.1,12.6,0.1,18.9c0,5.9,1.3,7.1,7,7.2   c20.3,0,40.6,0,61,0c5.7,0,6.9-1.4,7-7.2c0.1-10.9,0.1-21.9,0.1-32.8C272.5,278.7,277.3,278.7,282.1,278.7z"/>
	<path class="st6" d="M303.5,81.5c0.2,8.8,1.1,17.6-0.4,26.3c-1.7,9.8-9.3,16-19.1,16.1c-21.6,0.2-43.2,0.2-64.8,0   c-10.9-0.1-18.6-7.6-19.6-19.3c-0.6-7.6-0.6-15.4,0.2-23.1c4.7,0,9.5,0,14.2,0c0,6.9,0,13.9,0.1,20.8c0.1,5.1,1.8,6.9,7,6.9   c20.5,0,41,0,61.5,0c4.7,0,6.3-1.7,6.4-6.4c0.1-7.1,0.1-14.2,0.1-21.3C293.9,81.5,298.7,81.5,303.5,81.5z"/>
	<path class="st0" d="M213.9,81.5c-4.7,0-9.5,0-14.2,0c-0.5-8-1.2-16,0.4-23.9c1.8-9,9.2-15,18.4-15.1c22-0.1,44-0.1,66,0   c10.4,0,18.7,8.1,19.1,18.6c0.2,6.8-0.1,13.5-0.1,20.3c-4.8,0-9.6,0-14.4,0c0-5.9-0.1-11.7-0.1-17.6c-0.1-5.5-1.2-6.7-6.4-6.7   c-20.7,0-41.3,0-62,0c-5.2,0-6.4,1.3-6.5,6.7C214,69.8,214,75.6,213.9,81.5z"/>
	<path class="st7" d="M350,405.5c-4.8,0-9.5,0-14.3,0c-0.1-0.3-0.2-0.6-0.2-0.9c-0.6-8.7-0.6-8.7-9.3-8.8   c-6.1-0.1-12.3,0.4-18.4-0.5c-10.1-1.5-16.8-9-16.9-19.2c-0.1-4.1,0.1-8.3,0.2-12.4c4.8,0,9.6,0,14.4,0c0.1,3.2,0.2,6.4,0.2,9.7   c0.1,6.8,0.5,7.2,7.4,7.2c18.6,0,37.2,0,55.8,0c11.3,0,11.3,0,11.8-11.4c4.7,0,9.3,0,14,0c3,13.9-6.3,26.1-20.4,26.5   c-6.3,0.2-12.6,0.3-18.9,0c-4-0.2-5.8,0.9-5.1,5.1C350.3,402.4,350,404,350,405.5z"/>
	<path class="st8" d="M120.5,170.3c1.1,9.3,1.4,18.7-0.5,27.9c-1.7,7.9-9.5,13.7-17.7,13.7c-22.5,0.1-44.9,0.1-67.4,0   c-9.4,0-17.6-8.4-18.1-18c-0.2-3.2,0.1-6.5,0.1-9.7c4.8,0,9.6,0,14.4,0c0.1,1.8,0.1,3.7,0.2,5.5c0,6.7,0.9,7.5,7.4,7.5   c20.1,0,40.3,0,60.4,0c5.5,0,7.1-1.6,7.1-7.1c0.1-6.6,0.1-13.2,0.1-19.8C111.2,170.3,115.9,170.3,120.5,170.3z"/>
	<path class="st9" d="M192.6,292.6c-4.8,0-9.5,0-14.3,0c-0.1-7.4-0.6-14.8-0.1-22.1c0.7-10.9,9.3-18.5,20.4-18.5c20.5,0,41,0,61.4,0   c14.6,0,22.5,8,22.4,22.6c0,1.4-0.2,2.8-0.3,4.1c-4.8,0-9.5,0-14.3,0c0-1.7-0.1-3.4-0.1-5.1c-0.1-5.2-1.7-6.9-7-6.9   c-20.3,0-40.7,0-61,0c-5.2,0-6.9,1.7-6.9,6.9C192.7,279.9,192.6,286.2,192.6,292.6z"/>
	<path class="st10" d="M120.5,170.3c-4.6,0-9.3,0-13.9,0c0-5.7-0.1-11.4-0.1-17.1c0-6.5-1.4-7.9-7.8-7.9c-18.2,0-36.3,0.1-54.5,0   c-13.9-0.1-12.5,0.1-12.8,12.1c-4.8,0-9.6,0-14.4,0c-0.2-3.5-0.6-7.1,0.2-10.6c2.1-10,9.7-16.2,20.1-16.2c21.1,0,42.2-0.1,63.2,0   c12.2,0,20.1,8.1,20.1,20.3C120.6,157.4,120.6,163.9,120.5,170.3z"/>
	<path class="st5" d="M291.5,330.5c1.1-9.6,9-16.2,19.6-16.4c6.8-0.1,13.6-0.1,20.3,0c3,0.1,4-0.9,3.9-4c-0.2-5.8-0.1-11.7,0-17.6   c0.1-5.4,3.3-9.2,7.7-9.1c4.3,0.1,7,3.4,7,9.1c0,5.7,0.2,11.4-0.1,17.1c-0.1,3.3,0.7,4.7,4.3,4.5c6.8-0.3,13.6-0.2,20.3,0   c11.4,0.3,19.5,7.8,19.8,18.3c-4.7,0-9.4,0-14.1,0c-1.7-3.2-4.4-3.7-7.7-3.7c-19.5,0.1-39,0.1-58.5,0c-3,0-5.8,0.3-8.3,1.9   C301.1,330.5,296.3,330.5,291.5,330.5z"/>
	<path class="st11" d="M76,369.4c0,24.2,0.1,48.4,0.1,72.6c0,4.3-2.6,7.2-6.5,7.7c-3.6,0.4-7-2.3-7.9-6.3c-0.2-1-0.3-2.1-0.3-3.2   c0-22.6,0-45.3,0-67.9c0-0.9,0.2-1.8,0.3-2.7C66.5,369.4,71.2,369.4,76,369.4z"/>
	<path class="st5" d="M153,255.5c4.8,0,9.6,0,14.4,0c0,20.1,0,40.1,0,60.2c-4.9,0-9.8-0.6-14.4,1.8C153,296.9,153,276.2,153,255.5z"/>
	<path class="st12" d="M153,317.6c4.6-2.4,9.5-1.8,14.4-1.8c0,17.3,0,34.6,0,51.8c-4.8,0-9.6,0-14.4,0   C153,350.9,153,334.2,153,317.6z"/>
	<path class="st5" d="M76,369.4c-4.7,0-9.5,0-14.2,0c-0.8-13.9-0.3-27.7-0.2-41.6c0-4.7,3.7-7.7,7.8-7.4c4,0.3,6.8,3.3,6.8,7.8   C76.1,341.9,76,355.7,76,369.4z"/>
	<path class="st9" d="M438.5,242.6c0.5,15.4,0.5,30.9,0,46.3c-4.8,0-9.5,0-14.3,0c0-15.4,0-30.9,0-46.3   C429,242.6,433.8,242.6,438.5,242.6z"/>
	<path class="st2" d="M438.5,242.6c-4.8,0-9.5,0-14.3,0c0-12.6-0.1-25.3-0.1-37.9c0-4.6,2.9-7.4,7-7.5c4.2,0,7.5,2.7,7.6,7   C438.8,217,438.6,229.8,438.5,242.6z"/>
	<path class="st6" d="M424.1,124.9c0-5.1-0.1-10.2,0-15.2c0.1-4.5,2.9-7.5,6.9-7.7c3.8-0.2,7.5,2.8,7.6,7.1   c0.3,10.6,0.2,21.3,0,31.9c-0.1,4-3.9,7-7.5,6.8c-4.2-0.2-7-3-7.1-7.6C424,135,424.1,130,424.1,124.9z"/>
	<path class="st9" d="M76.1,248.1c0,5.1,0.1,10.2,0,15.2c-0.1,4.6-2.8,7.5-7,7.7c-3.6,0.2-7.5-3.1-7.6-7.2   c-0.2-10.5-0.2-20.9,0-31.4c0.1-4.1,4-7.5,7.6-7.2c4.1,0.2,6.9,3.1,7,7.7C76.2,237.9,76.1,243,76.1,248.1z"/>
	<path class="st5" d="M424.2,288.9c4.8,0,9.5,0,14.3,0c0.1,9.8,0.3,19.7,0.2,29.5c-0.1,5.1-3.2,7.9-7.8,7.7c-4.3-0.2-6.8-3-6.8-8.1   C424.1,308.2,424.2,298.5,424.2,288.9z"/>
	<path class="st12" d="M380.4,332.4c4.7,0,9.4,0,14.1,0c0,12.3,0,24.7,0.1,37c-4.7,0-9.3,0-14,0   C380.5,357.1,380.5,344.7,380.4,332.4z"/>
	<path class="st12" d="M291.5,330.5c4.8,0,9.5,0.1,14.3,0.1c-0.1,11.1-0.3,22.2-0.4,33.3c-4.8,0-9.6,0-14.4,0   C291.1,352.7,290.1,341.6,291.5,330.5z"/>
	<path class="st12" d="M237.3,358.5c0,3.7,0.1,7.4,0,11.1c-0.1,4.1-3,7.1-6.9,7.2c-4,0.1-7.2-3-7.2-7.3c-0.1-7.4-0.1-14.8,0-22.2   c0.1-4.4,3.2-7.5,7.1-7.4c3.9,0,6.9,3.1,7,7.6C237.3,351.1,237.3,354.8,237.3,358.5z"/>
	<path class="st9" d="M335.7,239.8c4.8,0,9.5,0,14.3,0c0,7.1,0.2,14.1,0.1,21.2c0,4.9-2.7,7.8-7,8.1c-3.9,0.2-7.4-3-7.6-7.6   C335.3,254.2,335.6,247,335.7,239.8z"/>
	<path class="st4" d="M17,157.4c4.8,0,9.6,0,14.4,0c0,9,0,17.9,0,26.9c-4.8,0-9.6,0-14.4,0C17,175.3,17,166.3,17,157.4z"/>
	<path class="st10" d="M244.4,148.8c0-2.6-0.1-5.2,0-7.8c0.2-3.7,2.3-6,5.8-6.6c4-0.6,7.2,0.9,8.1,5c1.3,6.5,1.4,13.1,0,19.6   c-0.9,3.9-3.9,5.4-7.7,4.9c-3.8-0.5-6-2.9-6.1-6.8C244.4,154.3,244.4,151.5,244.4,148.8z"/>
	<path class="st11" d="M167.4,412.9c-4.8,0-9.6,0-14.4,0c0-8.6,0-17.3,0-25.9c4.7-1.3,9.6-0.9,14.4-0.9   C167.4,395,167.4,404,167.4,412.9z"/>
	<path class="st11" d="M237.2,399.6c0,2.8,0.1,5.5,0,8.3c-0.2,3.8-3.2,6.6-6.8,6.8c-3.8,0.1-7.1-2.8-7.2-6.8   c-0.2-5.5-0.2-11.1,0-16.6c0.1-3.8,3.1-6.6,6.8-6.8c3.8-0.1,7,2.8,7.2,6.8C237.3,394.1,237.2,396.8,237.2,399.6z"/>
	<path class="st8" d="M333.1,195.4c4.9-2,10.1-0.5,15.1-1c3.4,7.2,1.4,14.8,1.7,22.2c-4.8,0-9.5,0-14.3,0c-0.1-1.7-0.2-3.4-0.3-5   C335.3,206.1,336.1,200.5,333.1,195.4z"/>
	<path class="st5" d="M76.1,294.5c0,0.9,0,1.9,0,2.8c-0.1,5.6-2.8,8.7-7.3,8.7c-4.2,0-7.3-3.7-7.4-8.9c0-2.2-0.1-4.3,0-6.5   c0.3-4.7,3.7-8.2,7.8-8.1c4.1,0.2,6.7,3.3,6.9,8.3C76.1,292,76.1,293.2,76.1,294.5z"/>
	<path class="st4" d="M424.1,171.1c0-1.7-0.1-3.4,0-5.1c0.4-3.9,2.7-6.2,6.5-6.7c3.7-0.4,6.4,1.3,7.4,4.8c1.4,4.6,1.4,9.5-0.2,14.1   c-1.2,3.6-4.4,4.7-7.9,4.1c-3.4-0.5-5.5-2.7-5.9-6.2C424,174.5,424.1,172.8,424.1,171.1C424.1,171.1,424.1,171.1,424.1,171.1z"/>
	<path class="st7" d="M167.4,386.1c-4.8,0-9.7-0.3-14.4,0.9c0-6.5,0-13,0-19.5c4.8,0,9.6,0,14.4,0   C167.4,373.7,167.4,379.9,167.4,386.1z"/>
	<path class="st13" d="M251,481.5c-6.6,0-13.3,0-19.9,0c-11,0-19-6.8-19.8-16.6c-0.8-10.1,6-19.2,16.9-19.9   c15.5-1,31.1-1.4,46.6,0.3c9.4,1.1,15.8,10.1,15,19.7c-0.7,9.1-8.6,16.4-18,16.5C264.9,481.6,257.9,481.5,251,481.5z M250.4,459.2   c-6.3,0-12.6,0-18.9,0c-2.9,0-5.4,0.5-5.5,4c0,3.3,2.5,4,5.1,4c12.9,0.1,25.8,0.1,38.7,0c2.6,0,5.2-0.6,5.2-3.9   c0.1-3.5-2.4-4.2-5.3-4.2C263.3,459.3,256.9,459.2,250.4,459.2z"/>
	<path class="st8" d="M236.2,197.2c9.2,0,18.5,0,27.7,0c5.3,0,8.3,2.6,8.4,7c0.1,4.5-2.8,7.6-8,7.6c-18.9,0.1-37.9,0.1-56.8,0   c-4.7,0-8.3-3.6-8.2-7.7c0.1-4,3.4-6.9,8.2-7C217.2,197.1,226.7,197.2,236.2,197.2z"/>
	<path class="st8" d="M290.2,197.2c2.2,0,4.3-0.1,6.5,0c4.6,0.1,7.7,2.8,7.9,6.8c0.2,3.7-3,7.5-7.1,7.8c-4.8,0.3-9.6,0.3-14.3,0   c-3.9-0.2-7.1-4-7-7.4c0.1-4,3.2-7,7.6-7.2C285.9,197.1,288.1,197.2,290.2,197.2z"/>
</g>
</svg>