
<svg version="1.1" xmlns="http://www.w3.org/2000/svg" xmlns:xlink="http://www.w3.org/1999/xlink" x="0px" y="0px" viewBox="0 0 1000 1000" enable-background="new 0 0 1000 1000" xml:space="preserve">
<style>
    path{
        fill:#51be78;
    }
    </style>
<g><g transform="translate(0.000000,512.000000) scale(0.100000,-0.100000)"><path d="M4890.9,4974.1l-53.6-45.9l-9.6-534l-9.6-532.1l-396.2-788.6c-220.1-434.5-398.1-809.6-398.1-834.5c0-111,114.8-183.8,220.1-139.7c59.3,24.9,86.1,70.8,323.5,541.7l258.4,513v-455.5c1.9-511.1,13.4-568.5,114.8-602.9c42.1-15.3,76.6-15.3,118.7,0c101.5,34.4,112.9,91.9,114.8,602.9v455.5l256.5-507.2c139.7-279.5,269.9-520.6,287.1-535.9s63.2-26.8,99.5-26.8c80.4,0,158.9,76.6,158.9,153.1c0,24.9-179.9,407.7-402,849.8l-402,803.9v402v402h402h402v-162.7v-162.7h-269.9h-269.9l-55.5-55.5c-59.3-59.3-68.9-112.9-32.5-179.9c44-84.2,65.1-88.1,470.9-90c520.6,0,482.3-40.2,482.3,488.1c0,392.4,0,394.3-47.9,440.2l-45.9,47.9h-631.6h-631.6L4890.9,4974.1z"/><path d="M1363.3,2728.9c-15.3-5.7-44-24.9-65.1-42.1c-49.8-44-872.8-1697.8-872.8-1755.2c0-63.2,97.6-160.8,158.9-160.8c95.7,0,145.5,72.7,405.8,591.4l256.5,509.1v-491.9c1.9-269.9,7.7-505.3,13.4-522.5c15.3-36.4,105.3-86.1,160.8-86.1c23,0,67,24.9,97.6,55.5l55.5,55.5l1.9,486.2v484.3l256.5-507.2c139.7-279.5,269.9-520.6,287.1-535.9c55.5-45.9,179.9-36.4,222,17.2c72.7,90,57.4,132.1-384.7,1018.3c-396.2,790.5-426.8,844.1-488.1,870.9c-36.4,15.3-68.9,26.8-70.8,24.9C1393.9,2740.4,1378.6,2734.6,1363.3,2728.9z"/><path d="M8527.6,2713.6c-55.5-23-99.5-103.4-484.3-869c-442.1-886.2-457.5-928.3-384.7-1018.3c42.1-53.6,166.5-63.2,222-17.2c17.2,15.3,147.4,256.5,287.1,535.9l256.5,507.2V1368l1.9-486.2l55.5-55.5c59.3-59.3,112.9-68.9,179.9-32.5c86.1,45.9,88.1,57.4,90,580l1.9,497.7l266.1-528.3c273.7-541.7,294.8-572.3,403.9-572.3c55.5,0,151.2,101.4,151.2,160.8c0,57.4-823,1711.2-872.8,1755.2C8646.3,2734.6,8594.6,2742.3,8527.6,2713.6z"/><path d="M3746.3,1699.1c-70.8-68.9-65.1-164.6,11.5-227.8c47.9-40.2,78.5-49.8,162.7-49.8h103.4V655.9v-767.5l47.9-45.9c65.1-67,149.3-63.2,222,7.7l55.5,55.5v758v758H5000h650.8v-758v-758l55.5-55.5c72.7-70.8,156.9-74.7,222-7.7l47.9,45.9v767.5v765.6h103.4c84.2,0,114.8,9.6,162.7,49.8c76.6,63.2,82.3,158.9,11.5,227.8l-45.9,47.9H5000H3792.2L3746.3,1699.1z"/><path d="M4890.9,724.8c-53.6-45.9-53.6-47.9-53.6-279.5s0-233.5,53.6-279.5c68.9-59.3,155.1-59.3,214.4,0c57.4,57.4,74.7,145.5,63.2,350.3c-7.6,151.2-13.4,168.4-61.3,210.5C5040.2,784.2,4959.8,782.3,4890.9,724.8z"/><path d="M174.6,420.5c-88.1-67-95.7-168.4-19.1-245c49.8-47.9,70.8-55.5,162.7-55.5h107.2v-1739.9v-1741.8l45.9-51.7c63.2-74.7,170.3-74.7,233.5,0l45.9,51.7v1741.8V120h648.9h648.9l7.7-118.7c7.7-97.6,17.2-124.4,61.2-162.7c68.9-57.4,153.1-57.4,212.5,3.8c40.2,38.3,47.9,65.1,47.9,162.7V120h114.8c97.6,0,124.4,7.7,162.7,47.9c72.7,70.8,70.8,168.4-1.9,235.4l-47.9,42.1H1405.4C492.4,443.5,197.6,437.7,174.6,420.5z"/><path d="M7342.8,399.5c-42.1-34.5-53.6-61.3-51.7-118.7c3.8-111,70.8-160.8,218.2-160.8h112.9V-2.5c0-111,5.7-128.2,49.8-162.7c67-53.6,145.5-51.7,210.5,3.8c44,38.3,53.6,65.1,61.3,162.7l7.7,118.7h648.9h648.9v-1665.2v-1667.1l47.9-45.9c51.7-51.7,151.2-63.2,202.9-23c74.7,57.4,74.7,57.4,74.7,1753.3V120h107.2c91.9,0,112.9,7.7,162.7,55.5c59.3,59.3,68.9,112.9,32.5,179.9c-47.9,91.9-15.3,88.1-1282.4,90H7394.5L7342.8,399.5z"/><path d="M1334.6-553.8c-76.6-42.1-86.1-72.7-86.1-306.3c0-216.3,1.9-229.7,47.9-273.7c30.6-32.5,67-47.9,109.1-47.9c134,1.9,168.4,72.7,168.4,335c0,199.1-1.9,204.8-55.5,260.3C1459-528.9,1399.6-517.4,1334.6-553.8z"/><path d="M2115.5-576.7l-53.6-45.9v-1295.8v-1295.8l53.6-45.9c65.1-55.5,145.5-59.3,212.5-5.8l49.8,38.3l3.8,1181l5.7,1181H2550h162.7l5.7-277.5c7.7-396.2-49.8-363.7,637.4-363.7c302.4,0,564.6,5.7,581.9,11.5c67,26.8,86.1,111,86.1,380.9v258.4h162.7h162.7v-277.5c0-271.8,1.9-281.4,47.9-325.4l45.9-47.9h557h557l45.9,47.9c45.9,44,47.9,53.6,47.9,325.4v277.5h162.7h162.7v-258.4c0-269.9,19.1-354.1,86.1-380.9c17.2-5.7,279.4-11.5,581.9-11.5c687.1,0,629.7-32.5,637.4,363.7l5.7,277.5H7450h162.7l5.7-1181l3.8-1181l49.8-38.3c67-53.6,147.4-49.8,212.5,5.8l53.6,45.9v1295.8v1295.8l-53.6,45.9c-53.6,45.9-59.3,45.9-434.5,45.9c-375.1,0-380.9,0-434.5-45.9c-53.6-45.9-53.6-45.9-59.3-325.4l-5.7-279.4H6625h-323.5v266.1c0,147.4-5.7,281.3-11.5,298.6c-28.7,72.7-105.3,86.1-486.2,86.1h-367.5l-55.5-55.5l-55.5-55.5v-269.9v-269.9H5000h-325.4v269.9v269.9l-55.5,55.5l-55.5,55.5h-367.5c-380.9,0-457.5-13.4-486.2-86.1c-5.7-17.2-11.5-151.2-11.5-298.6v-266.1H3375h-325.4l-5.7,279.4c-5.7,279.5-5.7,279.5-59.3,325.4c-53.6,45.9-59.3,45.9-434.5,45.9S2169.1-530.8,2115.5-576.7z"/><path d="M8481.7-586.3c-53.6-55.5-55.5-61.2-55.5-260.3c0-262.2,34.5-333.1,168.4-335c42.1,0,78.5,15.3,109.1,47.9c45.9,44,47.9,57.4,47.9,266.1c0,120.6-5.7,233.5-11.5,250.7c-15.3,36.4-105.3,86.1-160.8,86.1C8556.3-530.8,8512.3-555.7,8481.7-586.3z"/><path d="M1363.3-1845.7c-15.3-5.7-47.9-28.7-70.8-49.8c-40.2-36.4-44-55.5-44-271.8s3.8-235.4,44-271.8c59.3-55.5,99.5-65.1,166.5-40.2c88,30.6,114.8,99.5,114.8,310.1c0,212.5-17.2,268-93.8,308.2C1418.8-1830.4,1409.2-1828.5,1363.3-1845.7z"/><path d="M8521.9-1857.2c-24.9-13.4-57.4-45.9-70.8-70.8c-28.7-57.4-32.5-396.2-5.7-467c36.4-97.6,179.9-122.5,260.3-47.9c44,40.2,45.9,55.5,45.9,275.6c0,216.3-3.8,235.4-42.1,273.7C8652-1841.9,8581.2-1826.6,8521.9-1857.2z"/><path d="M4866-2178.8c-137.8-19.1-296.7-78.5-407.7-153.1c-191.4-126.3-363.7-373.2-413.4-591.5c-11.5-51.7-21.1-419.2-21.1-924.5v-838.3l49.8-45.9l51.7-47.9h859.4c905.3,0,947.5,3.8,980,86.1c5.7,17.2,11.5,403.9,11.5,857.5c0,893.9-3.8,926.4-107.2,1140.8c-65.1,132.1-269.9,342.6-400,409.6C5279.4-2190.3,5053.6-2150.1,4866-2178.8z M5237.4-2542.5c208.6-76.6,380.9-296.7,407.7-514.9l11.5-95.7H5000h-656.5l11.5,93.8c26.8,220.1,195.2,438.3,402,516.8C4892.8-2490.8,5099.5-2488.9,5237.4-2542.5z M5650.8-3641.1v-162.7H5000h-650.8v162.7v162.7H5000h650.8V-3641.1z M5650.8-4291.9v-162.7H5000h-650.8v162.7v162.7H5000h650.8V-4291.9z"/><path d="M301-3667.9c-88-40.2-151.2-103.3-179.9-179.9c-13.4-32.5-21.1-212.5-21.1-436.4V-4669l55.5-55.5L211-4780h1686.3h1684.4l53.6,45.9l53.6,45.9l5.7,363.7c3.8,233.5-1.9,394.3-15.3,446c-45.9,168.5-224,271.8-396.2,229.7c-59.3-15.3-105.3-15.3-164.6,0c-61.3,15.3-105.3,15.3-162.7,0c-57.4-17.2-101.5-17.2-162.7,0c-61.3,15.3-105.3,15.3-162.7,0c-57.4-17.2-101.5-17.2-162.7,0c-61.3,15.3-105.3,15.3-162.7-1.9c-59.3-15.3-101.5-15.3-160.8,0c-57.4,17.2-101.4,17.2-162.7,1.9c-59.3-15.3-105.3-15.3-164.6,0c-61.3,15.3-105.3,15.3-162.7,0c-55.5-15.3-103.4-15.3-166.5-1.9c-61.3,13.4-111,13.4-162.7,0s-101.4-13.4-162.7,0s-111,13.4-170.4-1.9c-59.3-15.3-103.4-15.3-160.8,0c-57.4,17.2-101.5,17.2-164.6,0c-63.2-15.3-103.4-15.3-147.4,0C435-3623.9,390.9-3625.8,301-3667.9z M1482-4098.6c76.6-53.6,187.6-22.9,237.3,67c19.1,34.5,24.9,38.3,26.8,13.4c0-40.2,88-111,137.8-111c57.4,0,145.5,53.6,158.9,97.6c13.4,40.2,13.4,40.2,36.4-3.8c53.6-109.1,216.3-116.8,277.5-15.3l34.5,55.5l21-47.9c47.9-103.4,210.5-107.2,269.9-7.7l34.5,55.5l21-47.9c47.9-103.4,210.5-107.2,271.8-5.7c32.5,53.6,34.4,55.5,47.9,17.2c13.4-45.9,101.4-97.6,162.7-97.6c23,0,67,24.9,97.6,55.5l55.5,55.5v-218.2v-218.2H1899.2H425.4v218.2v218.2l55.5-55.5c72.7-72.8,141.6-72.8,214.4,0l55.5,55.5l55.5-55.5c78.5-76.6,181.8-68.9,246.9,22.9c21.1,30.6,26.8,28.7,78.5-22.9c30.6-30.6,74.6-55.5,97.6-55.5c63.2,0,149.3,51.7,164.6,99.5l13.4,44l15.3-42.1C1430.3-4048.8,1457.1-4081.4,1482-4098.6z"/><path d="M6500.6-3667.9c-90-42.1-153.1-112.9-181.8-210.5c-11.5-42.1-17.2-212.5-13.4-438.3l5.7-371.3l53.6-45.9l53.6-45.9h1684.4H9789l55.5,55.5l55.5,55.5v386.6c0,424.9-9.6,472.8-112.9,560.8c-89.9,74.6-189.5,99.5-298.6,72.7c-63.2-15.3-109.1-17.2-162.7-1.9c-53.6,13.4-99.5,13.4-158.9-1.9c-61.3-15.3-105.3-15.3-162.7,0c-53.6,15.3-103.4,15.3-166.5,1.9c-61.3-13.4-111-13.4-170.4,1.9c-59.3,15.3-103.3,15.3-160.8-1.9c-59.3-15.3-101.4-15.3-160.8,0c-57.4,17.2-101.4,17.2-162.7,1.9c-59.3-15.3-105.3-15.3-164.6,0c-61.3,15.3-105.3,15.3-162.7,0c-57.4-17.2-101.4-17.2-162.7,0c-61.2,15.3-105.3,15.3-162.7,0c-57.4-17.2-101.4-17.2-162.7,0c-61.3,15.3-105.3,15.3-162.7-1.9c-59.3-15.3-101.4-15.3-158.9,0s-103.4,15.3-168.5,0c-61.2-13.4-109.1-13.4-155,0C6630.8-3623.9,6590.6-3627.7,6500.6-3667.9z M7036.6-4102.4c72.7-45.9,176.1-23,220.1,51.7l34.4,55.5l21.1-47.9c45.9-101.4,210.5-107.2,269.9-9.6l32.5,53.6l30.6-53.6c32.5-57.4,120.6-88,187.6-67c23,7.7,57.4,38.3,76.6,70.8c32.5,53.6,34.5,55.5,47.9,17.2c13.4-44,101.4-97.6,158.9-97.6c49.8,0,137.8,70.8,137.8,111c1.9,24.9,7.7,21.1,26.8-13.4c28.7-53.6,99.5-95.7,156.9-97.6c51.7,0,141.7,68.9,141.7,111c1.9,24.9,7.7,21.1,26.8-13.4c59.3-105.3,178-124.4,262.2-42.1c51.7,51.7,57.4,53.6,78.5,22.9c65.1-89.9,168.4-99.5,245-24.9l53.6,53.6l59.3-53.6c76.6-68.9,143.6-68.9,214.4,1.9l55.5,55.5v-218.2v-218.2H8100.8H6627v218.2v218.2l55.5-55.5c30.6-30.6,74.6-55.5,97.6-55.5c63.2,0,149.3,51.7,164.6,99.5l13.4,44l15.3-42.1C6981.1-4050.8,7009.8-4083.3,7036.6-4102.4z"/></g></g>
</svg>