<?xml version="1.0" standalone="no"?>
<!DOCTYPE svg PUBLIC "-//W3C//DTD SVG 20010904//EN"
 "http://www.w3.org/TR/2001/REC-SVG-20010904/DTD/svg10.dtd">
<svg version="1.0" xmlns="http://www.w3.org/2000/svg"
 width="471.000000pt" height="291.000000pt" viewBox="0 0 471.000000 291.000000"
 preserveAspectRatio="xMidYMid meet">

<g transform="translate(0.000000,291.000000) scale(0.100000,-0.100000)"
fill="#000000" stroke="none">
<path d="M2225 2904 c-279 -45 -539 -194 -705 -403 -82 -104 -161 -249 -200
-370 l-31 -94 34 -36 c19 -20 40 -52 46 -71 29 -96 82 -275 106 -360 15 -52
33 -116 41 -142 l15 -47 45 21 44 22 0 206 c0 237 11 301 79 445 86 184 198
303 368 388 143 73 345 89 509 41 133 -38 197 -76 300 -179 81 -80 98 -104
143 -197 78 -158 91 -237 91 -520 0 -222 0 -228 20 -228 25 0 36 27 232 564
16 44 30 64 55 78 18 11 33 21 33 22 0 13 -90 227 -118 280 -111 213 -309 403
-515 495 -135 61 -236 82 -407 86 -85 2 -168 1 -185 -1z m213 -126 c17 -17 15
-38 -4 -59 -16 -17 -15 -21 10 -54 30 -38 46 -45 47 -17 0 14 2 13 11 -5 14
-29 38 -37 57 -18 14 14 12 19 -22 50 -41 38 -46 63 -18 89 26 23 91 13 91
-15 0 -26 -17 -33 -25 -9 -7 22 -39 27 -51 8 -4 -7 8 -23 29 -41 27 -21 37
-37 37 -57 0 -47 -21 -55 -98 -41 -57 11 -72 19 -99 50 l-32 36 -1 -32 c0 -17
6 -34 13 -36 6 -3 -8 -6 -32 -6 -35 -1 -42 2 -33 11 7 7 12 39 12 73 0 34 -5
66 -12 73 -9 9 1 12 48 12 33 0 65 -5 72 -12z m-184 -14 c4 -9 3 -20 0 -23 -4
-3 -9 0 -11 7 -3 6 -18 12 -34 12 -27 0 -29 -2 -23 -27 9 -38 13 -41 29 -20
12 17 14 16 20 -13 4 -17 4 -34 1 -37 -3 -4 -6 -1 -6 5 0 7 -7 12 -15 12 -16
0 -20 -27 -6 -49 12 -18 61 -6 61 15 0 8 5 12 10 9 6 -3 10 -14 10 -24 0 -14
-11 -20 -45 -24 -25 -4 -57 -10 -72 -13 -24 -6 -26 -5 -16 8 16 19 -2 127 -24
145 -12 9 -7 13 29 21 65 15 85 14 92 -4z m-172 -26 c-7 -7 -12 -44 -12 -95 0
-46 -2 -83 -6 -83 -5 0 -135 133 -131 135 66 29 68 30 61 11 -3 -8 10 -31 30
-53 l35 -38 1 47 c0 35 -5 50 -17 57 -16 9 -16 11 7 20 34 14 46 13 32 -1z
m634 -4 c20 -5 22 -8 10 -18 -20 -16 -49 -112 -41 -137 6 -19 4 -21 -11 -14
-11 4 -29 10 -41 12 -25 6 -32 23 -9 23 8 0 23 25 35 62 17 49 18 64 8 76 -10
13 -9 15 6 9 11 -4 30 -10 43 -13z m107 -50 c84 -42 102 -101 48 -155 -16 -16
-37 -29 -46 -29 -25 0 -122 53 -104 57 20 5 73 108 65 128 -7 19 -3 19 37 -1z
m-929 -29 c-8 -19 46 -116 70 -124 16 -7 14 -10 -18 -29 -45 -27 -45 -27 -39
-3 6 22 -55 134 -68 125 -5 -3 -9 -1 -9 3 0 9 49 42 62 43 4 0 5 -7 2 -15z
m-62 -146 c22 -27 39 -52 36 -55 -3 -3 -40 2 -82 10 -41 9 -78 16 -81 16 -3 0
9 -18 26 -40 18 -22 39 -40 47 -40 12 0 11 -4 -4 -21 l-19 -21 -5 21 c-7 29
-72 110 -89 111 -11 0 -11 3 0 16 13 16 40 16 128 -2 l34 -7 -29 36 c-16 21
-35 35 -41 32 -20 -7 -15 13 5 24 13 7 19 5 24 -10 4 -11 27 -42 50 -70z
m1184 -39 c-15 -45 -24 -86 -21 -91 11 -16 -9 -9 -38 15 -28 22 -28 23 -8 29
28 7 27 31 -3 46 -27 15 -50 6 -42 -15 8 -20 -8 -17 -29 6 -17 19 -17 20 1 20
10 0 50 18 89 40 38 21 71 37 73 35 2 -2 -8 -40 -22 -85z m153 -52 c50 -68 35
-137 -35 -157 -39 -11 -65 2 -104 56 -26 35 -28 42 -13 40 26 -1 112 64 113
86 0 25 5 22 39 -25z m-1549 17 c0 -8 18 -29 40 -46 48 -39 59 -69 36 -105
-34 -51 -69 -49 -135 8 -18 16 -39 27 -47 24 -20 -8 -17 5 11 39 18 21 25 25
25 14 0 -22 75 -89 98 -89 24 0 42 19 42 46 0 25 -67 84 -94 84 -14 0 -15 4
-6 20 12 23 30 26 30 5z"/>
<path d="M2366 2771 c-10 -16 5 -61 20 -61 8 0 17 7 21 16 11 28 -27 69 -41
45z"/>
<path d="M2800 2601 c-25 -51 -27 -61 -15 -71 20 -17 41 -6 65 32 23 37 26 68
8 86 -20 20 -26 15 -58 -47z"/>
<path d="M2966 2505 c-16 -12 -17 -18 -8 -27 10 -10 15 -10 22 2 9 14 14 40 8
40 -2 0 -12 -7 -22 -15z"/>
<path d="M3103 2360 c-50 -39 -59 -62 -29 -73 35 -14 111 52 104 89 -5 29 -21
25 -75 -16z"/>
<path d="M2345 2399 c-80 -16 -172 -47 -274 -91 -103 -45 -104 -56 -3 -57 58
-1 66 -11 25 -30 -35 -16 -142 -94 -143 -103 0 -12 73 -10 108 3 16 5 32 19
35 30 3 10 13 19 23 19 10 0 28 9 40 21 13 12 32 19 45 17 21 -3 15 -10 -49
-65 -40 -35 -81 -63 -91 -63 -11 0 -30 -19 -48 -49 -17 -27 -56 -67 -87 -90
-61 -46 -75 -71 -23 -45 64 33 126 85 157 134 18 28 39 50 46 50 11 0 8 -10
-11 -37 -14 -21 -25 -45 -25 -54 0 -20 -29 -51 -104 -109 -61 -47 -110 -60
-125 -33 -6 11 -10 12 -15 4 -10 -15 -47 -144 -43 -148 5 -4 160 124 169 141
5 9 19 16 32 16 12 0 35 14 51 30 16 17 32 30 37 30 14 0 8 -24 -12 -50 -11
-14 -20 -32 -20 -40 0 -8 -21 -36 -46 -62 -69 -72 -182 -233 -171 -244 2 -2
32 14 68 35 58 35 64 42 67 75 2 20 8 36 15 36 6 0 37 26 69 57 67 66 91 65
29 -2 -29 -31 -41 -53 -41 -74 0 -21 -6 -32 -20 -36 -12 -4 -19 -14 -17 -27 1
-15 -10 -28 -41 -47 -25 -15 -53 -44 -67 -68 l-24 -43 30 0 c36 0 144 95 172
152 10 20 25 42 33 49 25 21 29 -1 8 -39 -12 -20 -25 -53 -29 -72 -3 -19 -18
-44 -31 -56 -23 -19 -25 -54 -3 -54 24 0 78 73 100 136 l24 69 69 0 69 0 33
-85 33 -85 -5 100 c-6 116 4 145 36 106 37 -44 120 -189 120 -209 0 -12 4 -23
9 -26 13 -8 211 91 244 122 16 16 27 36 27 53 l0 26 -41 -20 c-23 -11 -69 -22
-108 -25 -80 -5 -135 15 -200 73 -39 35 -41 40 -41 94 1 87 23 169 66 246 l40
70 79 3 c43 2 85 8 93 14 7 7 40 10 75 9 70 -3 127 -31 127 -62 0 -17 19 -29
20 -11 1 4 5 27 10 52 16 84 -43 169 -138 196 -50 15 -54 15 -89 -6 -52 -30
-66 -10 -16 25 l38 27 -32 -7 c-34 -7 -48 10 -18 21 29 12 14 33 -42 60 -47
22 -74 28 -143 30 -47 2 -107 -2 -135 -7z m190 -129 c11 -9 13 -16 5 -24 -5
-5 -10 -20 -10 -33 0 -13 -10 -29 -25 -39 -31 -20 -49 -11 -32 16 25 41 -34
76 -83 50 -17 -9 -19 -17 -14 -53 l7 -42 -27 24 c-31 29 -32 48 -8 91 l17 32
77 -4 c43 -3 84 -10 93 -18z m69 -142 c6 -26 4 -28 -25 -28 -23 0 -41 -10 -68
-38 -20 -20 -41 -46 -47 -57 -18 -32 -27 -11 -11 26 17 40 125 145 136 133 5
-5 11 -21 15 -36z m-114 -3 c0 -14 -84 -45 -121 -45 -27 0 -33 20 -13 35 19
14 113 35 127 28 4 -2 7 -10 7 -18z m-173 -45 c28 -17 60 -57 51 -65 -4 -3
-182 -9 -220 -7 -16 1 -28 8 -28 15 0 15 47 62 70 70 34 12 96 6 127 -13z m63
-121 c0 -11 -5 -29 -10 -40 -10 -17 -22 -19 -131 -19 -117 0 -120 1 -131 24
-23 51 -11 56 137 56 130 0 135 -1 135 -21z m-46 -88 c4 -5 -6 -18 -21 -29
l-28 -21 29 -11 c18 -6 26 -14 20 -20 -12 -12 -147 -24 -173 -15 -28 8 -27 33
1 37 31 4 33 23 3 36 -48 22 -27 32 69 32 52 0 97 -4 100 -9z m1 -131 c4 -6 1
-33 -6 -60 l-13 -50 -77 0 -77 0 -11 31 c-6 18 -11 45 -11 60 l0 29 94 0 c55
0 98 -4 101 -10z m423 -169 c-5 -15 -102 -91 -116 -91 -9 0 -11 7 -7 21 5 15
2 22 -14 26 -45 12 -15 33 47 33 20 0 44 5 52 10 19 12 43 13 38 1z"/>
<path d="M1931 2183 c-24 -10 -70 -67 -97 -120 -24 -48 -48 -163 -34 -163 3 0
35 28 71 63 36 35 74 67 85 72 17 8 16 9 -8 13 -16 2 -28 10 -28 18 0 8 -11
19 -25 24 -14 5 -25 12 -25 15 0 2 23 23 51 45 45 36 49 49 10 33z"/>
<path d="M2568 2033 c-29 -5 -78 -73 -104 -146 -21 -59 -18 -165 5 -203 39
-64 156 -104 239 -82 26 7 32 14 32 36 0 16 4 32 9 37 4 6 6 27 4 48 -4 28
-12 41 -29 49 -27 13 -32 49 -10 67 12 10 15 7 18 -16 3 -25 8 -28 42 -31 21
-2 43 1 48 6 11 11 -17 76 -51 121 l-19 25 -24 -29 c-25 -28 -52 -28 -41 1 4
10 1 15 -8 14 -34 -5 -42 -1 -29 15 7 9 9 19 5 23 -4 4 -10 1 -12 -5 -5 -15
-39 -17 -47 -4 -3 4 3 16 14 26 16 14 31 17 79 12 57 -5 59 -4 52 16 -7 18
-17 21 -77 22 -38 1 -81 0 -96 -2z m102 -307 c0 -3 -5 -17 -10 -32 -8 -19 -14
-24 -21 -17 -8 8 -7 17 0 32 10 18 31 30 31 17z m64 -4 c2 -4 -11 -20 -30 -35
-36 -30 -46 -19 -18 21 15 22 39 29 48 14z"/>
<path d="M1211 1896 c-6 -8 -38 -93 -71 -190 l-59 -176 75 0 c52 0 74 4 74 13
0 9 2 9 9 -1 5 -9 28 -12 73 -10 l66 3 -62 185 c-61 186 -76 211 -105 176z"/>
<path d="M3435 1901 c-7 -13 -125 -354 -125 -363 0 -5 32 -8 70 -8 48 0 70 4
70 12 0 9 3 9 12 0 13 -13 138 -17 138 -5 0 16 -113 349 -122 360 -12 15 -34
17 -43 4z"/>
<path d="M1971 1797 c-6 -12 -37 -36 -69 -52 -52 -28 -57 -34 -69 -80 -17 -69
-12 -75 22 -24 16 24 49 66 75 94 60 66 74 85 63 85 -5 0 -15 -10 -22 -23z"/>
<path d="M3866 1689 c-68 -19 -108 -96 -87 -162 19 -56 62 -87 122 -87 67 0
117 44 126 109 12 92 -73 166 -161 140z m96 -58 c25 -22 32 -36 32 -66 0 -47
-48 -95 -95 -95 -45 0 -89 47 -89 95 0 27 8 44 29 66 39 38 80 39 123 0z"/>
<path d="M3860 1560 c0 -33 4 -60 10 -60 6 0 10 11 10 25 0 14 4 25 8 25 5 0
15 -11 22 -25 7 -14 20 -25 28 -25 12 0 12 4 -2 25 -13 20 -14 28 -4 44 16 26
-5 51 -43 51 -29 0 -29 -1 -29 -60z m60 25 c0 -8 -9 -15 -20 -15 -11 0 -20 7
-20 15 0 8 9 15 20 15 11 0 20 -7 20 -15z"/>
<path d="M2181 1558 c-4 -13 -18 -49 -30 -81 -11 -32 -21 -62 -21 -67 0 -6 46
-10 109 -10 l109 0 -20 73 c-30 106 -31 107 -89 107 -42 0 -51 -3 -58 -22z"/>
<path d="M1051 1450 l-10 -30 80 0 c43 0 79 3 79 8 0 4 3 17 6 30 6 21 4 22
-69 22 -74 0 -75 0 -86 -30z"/>
<path d="M1250 1476 c0 -3 4 -16 10 -30 9 -25 13 -26 84 -26 l75 0 -10 30
c-11 30 -12 30 -85 30 -41 0 -74 -2 -74 -4z"/>
<path d="M3280 1454 c-6 -14 -10 -27 -10 -30 0 -3 35 -4 77 -2 74 3 77 4 84
31 l7 27 -74 0 c-71 0 -75 -1 -84 -26z"/>
<path d="M3484 1458 c3 -13 6 -26 6 -30 0 -8 150 -11 150 -4 0 3 -4 16 -10 30
-9 25 -13 26 -81 26 -69 0 -71 -1 -65 -22z"/>
<path d="M1017 1346 c-8 -25 -13 -47 -9 -50 3 -3 38 -6 78 -6 80 0 85 4 97 68
l7 32 -79 0 -79 0 -15 -44z"/>
<path d="M1285 1348 c4 -24 9 -46 12 -50 2 -5 38 -8 79 -8 68 0 74 2 74 20 0
12 -7 34 -15 50 -15 29 -18 30 -86 30 l-71 0 7 -42z"/>
<path d="M3244 1355 c-26 -62 -23 -65 65 -65 44 0 82 3 84 8 3 4 8 26 12 50
l7 42 -77 0 -76 0 -15 -35z"/>
<path d="M3506 1382 c-3 -5 0 -27 6 -50 l10 -42 80 0 c80 0 80 0 74 25 -19 74
-20 75 -95 75 -38 0 -72 -4 -75 -8z"/>
<path d="M2725 1318 c-16 -6 -41 -19 -54 -29 -30 -24 -36 -24 -61 1 -29 29
-164 29 -195 0 l-22 -20 -18 20 c-16 18 -30 20 -140 20 -97 0 -125 -3 -135
-15 -7 -8 -18 -15 -25 -15 -7 0 -18 7 -25 15 -10 12 -36 15 -117 15 -128 0
-163 -14 -163 -63 l0 -32 -25 32 c-14 17 -45 39 -69 48 -39 15 -46 15 -79 1
-66 -27 -100 -122 -59 -159 22 -20 63 -22 80 -5 15 15 16 48 2 48 -5 0 -10 7
-10 15 0 22 27 19 40 -4 27 -52 -6 -111 -64 -111 -44 0 -68 29 -96 113 l-22
67 -80 0 -80 0 6 -37 c14 -78 48 -191 66 -221 31 -51 90 -84 162 -89 55 -4 70
-1 118 24 84 43 128 127 117 223 l-6 45 65 -3 c77 -4 78 1 -6 -121 -100 -146
-79 -181 104 -181 90 0 99 2 121 25 30 29 31 49 5 75 -15 15 -33 20 -70 20
-27 0 -50 2 -50 5 0 10 133 195 140 195 4 0 13 -7 20 -15 7 -8 25 -15 41 -15
32 0 30 10 34 -165 2 -87 15 -115 55 -115 51 0 61 30 58 161 l-3 113 38 7 c21
3 44 15 52 25 13 17 14 2 15 -126 0 -80 4 -150 8 -157 15 -24 66 -35 132 -28
71 8 90 17 90 46 0 25 8 24 51 -5 48 -33 110 -50 151 -42 19 3 56 20 82 36
l47 30 45 -26 c53 -31 144 -42 198 -24 44 14 101 62 121 100 12 23 65 212 65
232 0 4 -38 8 -84 8 l-84 0 -22 -67 c-29 -87 -52 -113 -100 -113 -39 0 -62 18
-75 58 -8 27 17 72 40 72 19 0 19 -14 0 -30 -19 -16 -19 -25 1 -44 21 -22 67
-20 87 2 41 46 2 136 -70 161 -39 14 -44 14 -92 -12 -50 -26 -51 -26 -62 -6
-22 43 -124 62 -194 37z m160 -118 c3 -5 7 -43 9 -84 l4 -75 -30 -10 c-17 -6
-49 -11 -70 -11 -86 0 -130 100 -71 162 24 25 34 28 89 28 35 0 66 -4 69 -10z
m-295 -27 c0 -33 -15 -46 -38 -34 -11 6 -30 11 -41 11 -14 0 -21 6 -21 20 0
17 7 20 50 20 41 0 50 -3 50 -17z m-2 -122 c6 -16 8 -32 5 -35 -4 -3 -28 -6
-55 -6 -34 0 -50 4 -54 15 -12 29 12 44 83 54 6 0 16 -12 21 -28z"/>
<path d="M785 1303 c-31 -8 -83 -51 -100 -83 -22 -42 -19 -142 5 -189 53 -105
190 -150 300 -100 81 37 99 64 137 203 13 50 26 99 29 109 5 16 -2 18 -82 15
l-87 -3 -24 -70 c-26 -79 -50 -105 -99 -105 -60 0 -95 67 -60 115 9 12 19 16
32 11 18 -7 18 -8 2 -20 -36 -27 -14 -66 37 -66 41 0 55 16 55 62 0 53 -22 92
-64 112 -35 16 -45 17 -81 9z"/>
<path d="M3813 1296 c-54 -24 -86 -122 -53 -161 16 -20 64 -19 84 1 20 19 20
23 -1 46 -19 22 -9 37 15 22 24 -15 28 -81 6 -105 -22 -24 -75 -25 -103 -1
-12 9 -32 49 -44 87 l-24 70 -81 3 c-45 2 -82 -1 -82 -5 0 -17 58 -221 68
-239 6 -10 23 -31 39 -46 105 -100 282 -66 344 67 27 59 26 152 -3 195 -46 67
-107 91 -165 66z"/>
<path d="M59 453 c-4 -112 2 -158 22 -175 26 -22 87 -23 117 -2 20 14 22 23
22 110 0 86 -2 95 -17 92 -15 -3 -18 -16 -21 -85 -3 -89 -15 -108 -57 -93 -17
6 -21 19 -25 91 -4 69 -8 84 -22 87 -14 3 -18 -4 -19 -25z"/>
<path d="M354 467 c-3 -8 -3 -56 -2 -108 3 -80 6 -94 21 -97 15 -3 17 5 17 62
0 36 3 66 8 66 4 0 24 -30 45 -65 26 -45 44 -65 57 -65 19 0 20 7 20 111 0
100 -2 110 -17 107 -14 -2 -19 -17 -23 -68 l-5 -65 -29 50 c-47 82 -78 106
-92 72z"/>
<path d="M657 473 c-4 -3 -7 -53 -7 -110 0 -96 1 -103 20 -103 19 0 20 7 20
110 0 85 -3 110 -13 110 -8 0 -17 -3 -20 -7z"/>
<path d="M798 475 c-3 -3 11 -52 32 -108 32 -89 39 -102 59 -102 20 0 28 13
61 103 30 81 35 104 25 109 -23 8 -33 -5 -56 -77 -13 -39 -25 -70 -29 -70 -3
0 -16 33 -30 72 -23 66 -44 91 -62 73z"/>
<path d="M1090 370 l0 -110 80 0 c73 0 80 2 80 20 0 18 -7 20 -60 20 l-60 0 0
30 c0 30 1 30 55 30 42 0 55 3 55 15 0 12 -13 15 -55 15 -52 0 -55 1 -55 25 0
24 3 25 61 25 52 0 60 2 57 18 -3 14 -16 17 -81 20 l-77 3 0 -111z"/>
<path d="M1377 473 c-4 -3 -7 -53 -7 -110 0 -96 1 -103 20 -103 17 0 20 7 20
45 0 38 3 45 20 45 13 0 32 -17 52 -45 22 -31 39 -45 55 -45 31 0 29 9 -12 57
l-34 40 23 11 c48 22 35 92 -19 103 -42 9 -110 10 -118 2z m118 -58 c0 -16 -8
-21 -42 -23 -40 -3 -43 -2 -43 23 0 25 3 26 43 23 34 -2 42 -7 42 -23z"/>
<path d="M1692 464 c-26 -18 -30 -65 -7 -84 8 -6 34 -18 57 -25 48 -14 60 -38
27 -55 -18 -10 -26 -8 -50 9 -53 39 -80 21 -34 -24 48 -49 145 -23 145 38 0
35 -21 56 -70 71 -54 16 -68 46 -21 46 16 0 33 -4 36 -10 9 -15 45 -12 45 4 0
22 -40 46 -75 46 -17 0 -41 -7 -53 -16z"/>
<path d="M1955 467 c-3 -7 -4 -56 -3 -108 3 -86 5 -94 23 -94 19 0 20 7 20
105 0 92 -2 105 -18 108 -9 2 -19 -3 -22 -11z"/>
<path d="M2127 473 c-4 -3 -7 -53 -7 -110 l0 -103 49 0 c66 0 97 13 116 49 34
67 9 143 -53 160 -42 12 -95 14 -105 4z m114 -50 c18 -21 17 -102 -2 -114 -8
-5 -29 -9 -46 -9 l-33 0 0 70 0 70 34 0 c19 0 39 -7 47 -17z"/>
<path d="M2453 468 c-7 -11 -83 -199 -83 -205 0 -2 9 -3 20 -3 12 0 25 10 32
25 9 21 18 25 55 25 37 0 45 -4 53 -25 6 -15 17 -25 30 -25 11 0 20 2 20 5 0
10 -74 191 -83 203 -5 6 -15 12 -23 12 -7 0 -16 -6 -21 -12z m41 -95 c6 -20 4
-23 -18 -23 -30 0 -29 -2 -15 40 12 34 19 30 33 -17z"/>
<path d="M2665 468 c-3 -8 -4 -57 -3 -109 l3 -94 63 0 c57 0 66 3 88 28 33 39
34 115 2 152 -18 20 -36 26 -85 32 -50 5 -64 3 -68 -9z m119 -44 c18 -18 21
-76 6 -105 -8 -14 -21 -19 -50 -19 l-40 0 0 70 0 70 34 0 c19 0 42 -7 50 -16z"/>
<path d="M3130 453 c-6 -15 -24 -63 -40 -105 -35 -91 -35 -88 -12 -88 11 0 24
11 30 25 10 21 18 25 57 25 39 0 45 -3 51 -25 4 -18 13 -25 30 -25 l24 0 -19
48 c-64 161 -67 167 -89 170 -16 3 -25 -4 -32 -25z m48 -70 c10 -31 10 -33
-14 -33 -27 0 -29 6 -14 46 12 31 13 30 28 -13z"/>
<path d="M3344 469 c-10 -17 8 -27 53 -31 l43 -3 -55 -69 c-30 -38 -55 -77
-55 -88 0 -17 7 -19 88 -16 69 2 87 6 87 18 0 11 -15 16 -59 20 l-58 5 56 70
c77 96 75 105 -18 105 -43 0 -78 -5 -82 -11z"/>
<path d="M3600 460 c0 -16 7 -20 30 -20 l30 0 0 -90 c0 -83 1 -90 20 -90 19 0
20 7 20 90 l0 90 30 0 c23 0 30 4 30 20 0 18 -7 20 -80 20 -73 0 -80 -2 -80
-20z"/>
<path d="M3870 370 l0 -110 80 0 c73 0 80 2 80 20 0 18 -7 20 -60 20 l-60 0 0
30 c0 30 1 30 55 30 42 0 55 3 55 15 0 12 -13 15 -55 15 -52 0 -55 1 -55 25 0
22 4 24 58 27 43 2 57 7 57 18 0 12 -17 16 -77 18 l-78 3 0 -111z"/>
<path d="M4181 454 c-28 -23 -31 -31 -31 -84 0 -53 3 -61 31 -84 42 -35 92
-35 124 0 14 15 25 30 25 35 0 18 -37 13 -57 -8 -23 -24 -48 -22 -70 5 -16 19
-17 76 -3 103 14 24 65 26 79 2 7 -14 14 -15 32 -7 l23 11 -26 26 c-36 36 -85
36 -127 1z"/>
<path d="M4483 468 c-7 -11 -83 -199 -83 -205 0 -2 9 -3 20 -3 12 0 25 10 32
25 9 21 18 25 55 25 37 0 45 -4 53 -25 6 -16 17 -25 31 -25 16 0 20 4 15 18
-54 145 -81 202 -97 202 -10 0 -21 -6 -26 -12z m41 -95 c6 -20 4 -23 -18 -23
-30 0 -29 -2 -15 40 12 34 19 30 33 -17z"/>
<path d="M20 70 c0 -40 4 -70 10 -70 6 0 10 30 10 70 0 40 -4 70 -10 70 -6 0
-10 -30 -10 -70z"/>
<path d="M132 68 c1 -63 2 -66 5 -20 2 28 7 52 11 52 4 0 20 -23 37 -50 41
-71 55 -66 55 20 0 81 -18 95 -22 18 l-3 -53 -34 53 c-18 28 -37 52 -42 52 -5
0 -8 -33 -7 -72z"/>
<path d="M328 133 c20 -4 22 -10 22 -69 0 -36 4 -64 10 -64 6 0 10 28 10 64 0
63 1 65 28 69 15 2 0 4 -33 4 -33 0 -50 -2 -37 -4z"/>
<path d="M490 70 l0 -70 50 0 c28 0 50 5 50 10 0 6 -20 10 -45 10 -38 0 -45 3
-45 20 0 17 7 20 40 20 51 0 53 18 3 22 -30 2 -38 7 -38 23 0 16 9 21 45 26
l45 6 -52 1 -53 2 0 -70z"/>
<path d="M670 70 c0 -40 4 -70 10 -70 6 0 10 13 10 30 0 25 4 30 24 30 17 0
31 -10 43 -30 17 -29 33 -39 33 -21 0 4 -9 20 -21 35 -11 14 -16 26 -10 26 6
0 15 9 21 21 18 32 -4 49 -61 49 l-49 0 0 -70z m90 45 c17 -21 3 -35 -36 -35
-30 0 -34 3 -34 25 0 21 5 25 29 25 16 0 34 -7 41 -15z"/>
<path d="M870 70 c0 -81 18 -95 22 -17 l3 52 34 -53 c19 -28 38 -52 43 -52 4
0 7 33 6 73 l-1 72 -6 -55 -6 -55 -35 52 c-48 72 -60 69 -60 -17z"/>
<path d="M1059 70 c-15 -39 -23 -70 -18 -70 5 0 13 9 19 20 15 27 66 27 75 0
5 -17 25 -29 25 -15 0 19 -54 135 -64 135 -6 0 -23 -32 -37 -70z m53 15 c4
-19 1 -25 -13 -25 -21 0 -22 4 -13 37 8 28 20 22 26 -12z"/>
<path d="M1218 133 c20 -4 22 -10 22 -69 0 -82 18 -84 22 -2 3 57 5 63 28 69
16 5 4 7 -35 7 -33 -1 -50 -3 -37 -5z"/>
<path d="M1380 70 c0 -40 4 -70 10 -70 6 0 10 30 10 70 0 40 -4 70 -10 70 -6
0 -10 -30 -10 -70z"/>
<path d="M1514 132 c-53 -35 -27 -132 35 -132 32 0 44 8 60 38 16 29 5 79 -19
92 -22 12 -60 13 -76 2z m68 -19 c22 -20 23 -61 1 -85 -22 -24 -49 -23 -67 4
-21 29 -20 57 1 80 20 22 41 23 65 1z"/>
<path d="M1700 70 c0 -40 4 -70 10 -70 6 0 10 24 10 52 l0 53 35 -53 c20 -28
40 -52 45 -52 6 0 10 31 10 70 0 40 -4 70 -10 70 -5 0 -10 -23 -10 -52 l0 -52
-36 52 c-20 29 -41 52 -45 52 -5 0 -9 -31 -9 -70z"/>
<path d="M1892 88 c-11 -29 -23 -61 -27 -70 -4 -10 -3 -18 3 -18 6 0 14 9 17
20 5 15 15 20 40 20 24 0 34 -5 38 -20 3 -11 10 -20 16 -20 6 0 2 21 -10 53
-12 28 -24 60 -26 70 -10 32 -31 17 -51 -35z m47 -15 c1 -7 -8 -13 -18 -13
-18 0 -19 3 -9 32 10 28 12 30 19 12 4 -10 8 -25 8 -31z"/>
<path d="M2040 70 l0 -70 46 0 c27 0 43 4 39 10 -3 6 -19 10 -36 10 -29 0 -29
0 -29 60 0 33 -4 60 -10 60 -6 0 -10 -30 -10 -70z"/>
<path d="M2250 70 c0 -38 4 -70 8 -70 5 0 8 23 6 50 -1 28 1 50 4 50 4 0 22
-23 40 -50 17 -28 37 -50 42 -50 6 0 10 30 10 70 0 81 -18 95 -22 18 l-3 -53
-34 53 c-18 28 -37 52 -42 52 -5 0 -9 -31 -9 -70z"/>
<path d="M2450 70 l0 -70 50 0 c28 0 50 5 50 10 0 6 -20 10 -45 10 -38 0 -45
3 -45 20 0 17 7 20 40 20 51 0 53 18 3 22 -30 2 -38 7 -38 23 0 16 9 21 45 26
l45 6 -52 1 -53 2 0 -70z"/>
<path d="M2638 133 c20 -4 22 -10 22 -69 0 -36 4 -64 10 -64 6 0 10 28 10 64
0 63 1 65 28 69 15 2 0 4 -33 4 -33 0 -50 -2 -37 -4z"/>
<path d="M2784 118 c4 -13 12 -44 18 -71 6 -26 17 -47 23 -47 7 0 18 25 25 55
15 62 21 61 40 -7 7 -27 16 -48 21 -48 5 0 16 26 25 57 9 32 19 64 21 71 3 6
1 12 -5 12 -6 0 -16 -22 -23 -50 -14 -56 -20 -56 -34 3 -6 23 -17 42 -24 42
-8 0 -21 -24 -31 -55 l-17 -55 -13 58 c-7 31 -17 57 -23 57 -5 0 -6 -10 -3
-22z"/>
<path d="M3047 122 c-25 -28 -22 -87 5 -106 68 -48 141 33 92 102 -19 28 -74
30 -97 4z m74 -2 c40 -22 16 -110 -30 -110 -27 0 -41 21 -41 60 0 54 27 73 71
50z"/>
<path d="M3240 71 c0 -41 4 -71 10 -71 6 0 10 13 10 30 0 25 4 30 25 30 17 0
29 -9 40 -30 9 -17 20 -30 25 -30 15 0 12 9 -10 40 -17 24 -18 29 -4 34 10 4
14 16 12 33 -3 26 -7 28 -55 31 l-53 3 0 -70z m90 44 c17 -21 3 -35 -36 -35
-30 0 -34 3 -34 25 0 21 5 25 29 25 16 0 34 -7 41 -15z"/>
<path d="M3440 70 c0 -40 4 -70 10 -70 6 0 10 13 10 29 0 44 15 45 48 3 37
-46 54 -36 18 11 -33 43 -32 50 1 73 18 11 23 19 14 22 -7 2 -28 -11 -47 -29
l-34 -33 0 32 c0 18 -4 32 -10 32 -6 0 -10 -30 -10 -70z"/>
<path d="M3691 123 c-13 -25 -3 -39 42 -58 38 -16 48 -38 22 -49 -19 -7 -46 3
-62 23 -11 14 -12 14 -13 0 0 -25 25 -41 61 -37 65 6 64 61 -1 82 -37 12 -47
38 -17 44 10 2 28 -5 39 -15 20 -18 20 -17 17 2 -6 28 -73 34 -88 8z"/>
<path d="M3856 128 c4 -7 16 -25 26 -40 10 -14 18 -40 18 -57 0 -17 5 -31 10
-31 6 0 10 15 10 33 0 20 10 47 25 67 28 38 29 40 16 40 -6 0 -18 -13 -28 -30
-9 -16 -20 -30 -23 -30 -3 0 -13 14 -22 30 -9 17 -22 30 -28 30 -6 0 -8 -6 -4
-12z"/>
<path d="M4047 133 c-4 -3 -7 -17 -7 -29 0 -18 8 -26 40 -35 27 -8 40 -18 40
-30 0 -27 -31 -32 -62 -9 -30 22 -39 12 -12 -14 33 -33 100 -11 92 30 -3 17
-12 24 -62 43 -23 10 -26 14 -16 26 17 20 47 19 59 -2 5 -10 13 -15 17 -11 13
14 -19 38 -51 38 -17 0 -35 -3 -38 -7z"/>
<path d="M4223 133 c26 -4 27 -6 27 -69 0 -82 18 -84 22 -2 3 57 5 63 28 69
16 4 1 7 -40 7 -36 -1 -53 -3 -37 -5z"/>
<path d="M4390 70 l0 -70 50 0 c28 0 50 5 50 10 0 6 -19 10 -43 10 -36 0 -43
3 -43 20 0 16 7 20 38 20 21 0 38 5 38 10 0 6 -15 10 -34 10 -34 0 -50 17 -37
38 3 6 24 12 46 15 36 3 35 4 -12 5 l-53 2 0 -70z"/>
<path d="M4579 128 c-5 -50 -4 -120 3 -124 4 -3 8 18 8 47 0 59 10 56 30 -9 7
-23 18 -41 24 -39 5 2 18 25 27 53 l17 49 1 -52 c1 -29 6 -53 11 -53 6 0 10
30 10 70 0 88 -19 94 -45 15 -11 -30 -21 -52 -24 -49 -4 3 -13 26 -22 52 -15
44 -38 67 -40 40z"/>
</g>
</svg>
