
<svg version="1.1" xmlns="http://www.w3.org/2000/svg" xmlns:xlink="http://www.w3.org/1999/xlink" x="0px" y="0px" viewBox="0 0 1000 1000" enable-background="new 0 0 1000 1000" xml:space="preserve">
<style>
    path{
        fill:#51be78;
    }
    </style>
<g><g transform="translate(0.000000,511.000000) scale(0.100000,-0.100000)"><path d="M7133.9,238.4V-3486h1383.1H9900V238.4v3724.4H8516.9H7133.9V238.4z M9757.7,234.5l-5.9-3572.3l-1229-5.9l-1230.9-4V228.5v3576.2h1234.9h1234.9L9757.7,234.5z"/><path d="M7588.3,3340.4v-69.2h503.8H8596v69.2v69.2h-503.8h-503.8V3340.4z"/><path d="M7588.3,2530.4v-69.2h316.1h316.1v69.2v69.2h-316.1h-316.1V2530.4z"/><path d="M7588.3,1305.4v-69.2h316.1h316.1v69.2v69.2h-316.1h-316.1V1305.4z"/><path d="M7592.3,274l5.9-75.1l499.9-5.9l497.9-4v79v79h-505.8h-503.8L7592.3,274z"/><path d="M7596.2-708c-5.9-15.8-7.9-49.4-4-75.1c5.9-45.4,7.9-45.4,318.1-51.4l310.2-5.9v81v79h-306.3C7665.4-680.3,7604.1-686.3,7596.2-708z"/><path d="M7596.2-1933c-5.9-15.8-7.9-49.4-4-75.1c5.9-45.4,7.9-45.4,318.1-51.4l310.2-5.9v81v79h-306.3C7665.4-1905.3,7604.1-1911.2,7596.2-1933z"/><path d="M7588.3-2863.6v-69.2h503.8H8596v69.2v69.2h-503.8h-503.8V-2863.6z"/><path d="M337.1,2170.8c-51.4-19.8-140.3-112.6-183.7-193.6l-43.5-79L104-281.2l-4-2179.3l349.7-458.4c191.6-252.9,369.5-482.1,393.2-513.7l45.4-53.3l395.2,517.7l397.1,519.6l-4,2155.6l-5.9,2153.6l-59.3,116.6c-106.7,207.5-104.7,207.5-719.2,205.5C603.8,2182.6,352.9,2176.7,337.1,2170.8z M1402.1,2014.7c83-59.3,120.5-175.8,120.5-387.3v-193.6H878.5H232.4l9.9,203.5c9.9,213.4,41.5,308.2,122.5,373.4c37.5,31.6,96.8,35.6,515.7,35.6C1289.4,2046.3,1362.5,2042.3,1402.1,2014.7z M570.2-536.1l-5.9-1813.8l-162-5.9l-164-5.9V-542v1817.7h167.9h167.9L570.2-536.1z M1048.4-542v-1817.7H880.4H712.5V-542v1817.7h167.9h167.9V-542z M1522.6-542v-1817.7h-158.1h-158.1V-542v1817.7h158.1h158.1V-542z M1443.5-2509.9c0-5.9-124.5-183.8-278.6-393.2l-278.6-383.3L611.7-2911c-150.2,207.5-274.6,385.3-274.6,395.2c0,9.9,223.3,17.8,553.2,17.8C1194.6-2498.1,1443.5-2504,1443.5-2509.9z"/><path d="M4930.8,586.2c-31.6-7.9-85-29.6-118.5-47.4C4780.7,522.9,4195.8-50,3514.2-733.7C2214.1-2037.7,2233.9-2014,2233.9-2181.9c0-158.1,23.7-187.7,588.8-756.7L3370-3486h434.7h434.7l1130.2,1132.1C6545.1-1178.2,6578.7-1138.7,6580.6-978.7c0,177.8-9.9,193.6-669.8,857.5c-343.8,345.8-656,646.1-693.5,665.8C5132.4,588.1,5009.9,605.9,4930.8,586.2z M5134.4,418.2c29.6-15.8,331.9-308.2,671.8-648.1l616.5-620.4v-92.9c0-53.3-11.8-118.5-27.7-148.2c-15.8-29.6-367.5-391.2-780.4-804.2l-752.8-750.8L4101-1885.6l-760.7,760.7L4105-358.3c422.8,422.8,784.4,774.5,806.1,784.4C4972.3,451.8,5075.1,447.9,5134.4,418.2z M4456.7-3051.3l-296.4-296.4h-355.6H3449l-529.5,529.5l-527.5,529.5v106.7v106.7l418.9,420.8l420.8,420.8l760.7-760.7l760.7-760.7L4456.7-3051.3z"/><path d="M890.3-3663.8v-79h4504.8H9900v79v79H5395.2H890.3V-3663.8z"/></g></g>
</svg>