<svg version="1.1" id="Layer_1" xmlns="http://www.w3.org/2000/svg" xmlns:xlink="http://www.w3.org/1999/xlink" x="0px" y="0px" viewBox="0 0 512 512" style="enable-background:new 0 0 512 512;" xml:space="preserve">
<style type="text/css">
	.st0{fill:#020202;}
	.st1{fill:#040404;}
</style>
<g>
	<path class="st0" d="M257.6,54.4c67,0,134,0.1,200.9-0.1c17.8,0,31.5,6.3,40,22.5c3.2,6.2,4.4,12.9,4.4,19.7   c0.1,87.1,0.1,174.3,0,261.4c0,24.5-17.7,42-42.1,42.1c-135.5,0.1-270.9,0-406.4,0c-20.5,0-35.7-11.4-40.8-30.5   c-1-3.6-1.5-7.5-1.5-11.3C12,270.9,12,183.6,12,96.3c0-20.2,12.1-35.8,31.3-40.8c3.9-1,7.9-1.1,11.9-1.1   C122.7,54.4,190.1,54.4,257.6,54.4z M257.6,91.6c-64.8,0-129.6,0-194.4,0C55.6,91.6,52,95.4,52,103c0,82.6,0,165.3,0,247.9   c0,8.3,3.5,11.9,11.7,11.9c129.1,0,258.2,0,387.4,0c8.3,0,11.9-3.5,11.9-11.7c0-50.8,0-101.6,0-152.4c0-32.2,0-64.3,0-96.5   c0-6.4-3.6-10.2-10-10.5c-2.7-0.1-5.3-0.1-8-0.1C382.5,91.6,320,91.6,257.6,91.6z"/>
	<path class="st1" d="M257.7,430c29.2,0,58.3,0,87.5,0c9.9,0,16.6,5.8,16.8,14.4c0.2,9.7-5.7,16-16,16.2   c-16.2,0.3-32.3,0.1-48.5,0.1c-42,0-84,0-126,0c-5.4,0-10.6-0.5-14.6-4.9c-4.3-4.8-5.2-10.2-3-16.1c2.3-6,7.7-9.6,14.3-9.6   C198.1,429.9,227.9,430,257.7,430z"/>
</g>
</svg>