<?xml version="1.0" encoding="utf-8"?>
<!-- Generator: Adobe Illustrator 22.1.0, SVG Export Plug-In . SVG Version: 6.00 Build 0)  -->
<svg version="1.1" id="Layer_1" xmlns="http://www.w3.org/2000/svg" xmlns:xlink="http://www.w3.org/1999/xlink" x="0px" y="0px"
	 viewBox="0 0 1920 876" style="enable-background:new 0 0 1920 876;" xml:space="preserve">
<style type="text/css">
	.st0{fill:#DBECFE;}
</style>
<g>
	<path class="st0" d="M74,876c-24.6,0-49.2,0-73.8,0c0-285.1,0-570.1,0-855.2C14,26.1,27.7,31.6,41.6,36.7
		c34.7,12.7,69.6,24.8,104.8,36.1c28.9,9.2,57.8,18.2,87,26.5c47.1,13.4,94.4,26,142.2,36.9c24.8,5.7,49.6,11.4,74.6,16.3
		c25.9,5.1,51.9,10,77.9,14.8c19.3,3.5,38.7,6.5,58.2,9.2c14.7,2,29.4,4.4,44.1,6.1c14.2,1.7,28.4,4,42.7,5.6
		c12.3,1.4,24.7,2,37,3.2c16.9,1.6,33.8,3.5,50.8,4.8c17.6,1.3,35.3,2.3,53,3c13.9,0.5,27.8,0.6,41.7,0.9
		c31.3,0.6,62.7,0.6,94.1-0.8c5.9-0.3,11.9-0.6,17.8-0.7c21.2-0.5,42.3-1.7,63.4-3.2c10.4-0.8,20.8-1.2,31.2-2.1
		c16.6-1.5,33.2-3.2,49.7-4.9c16.1-1.6,32.2-3.2,48.2-5.1c16.5-2,33-4.7,49.5-6.7c25.6-3,51-7.2,76.4-11.4
		c31.4-5.1,62.8-10.8,94.1-17c58.1-11.3,115.8-24.2,173.3-38.4c30.7-7.6,61.2-15.7,91.8-23.9c48.3-13,96.2-27.2,144-42.1
		c33.9-10.6,67.5-21.8,101-33.7c8.1-2.9,16.4-5.2,24.1-9.1c0.3,0.2,1-0.5,1,0.5c0,1.3,0,2.7,0,4c0,286.9,0,573.8,0,860.7
		c-6-0.3-11.9,0.8-17.8,0.9c-66.6,0.7-133.1-0.5-199.7,0.9c-66.7,1.4-133.5-0.4-200.2,1c-66.9,1.4-133.8-0.4-200.7,1
		c-66.2,1.4-132.5-0.3-198.7,1c-70.7,1.4-141.4-0.4-212.2,1.1c-62.4,1.3-124.8-0.4-187.3,0.9c-68.1,1.4-136.1-0.7-204.2,1
		c-32.7,0.8-65.4,0.2-98.2,0.2c-8.9,0-17.7-0.1-26.6,0c-1.7,0-3.8-0.7-4.3,2c-11.6,0-23.3,0-34.9,0c-1.2-2.6-3.6-1.9-5.7-2
		c-13.6-0.7-27.1,1.1-40.7,1c-33.7-0.2-67.4,0-101.1,0c-13.3,0-26.6,0-39.9,0c-13,0-25.9,0-38.9,0c-7.4,0-14.9-0.1-22.3,0
		C79.1,875.1,76.4,874.1,74,876z"/>
	<path class="st0" d="M396,873.2c32.7,0,65.5,0.6,98.2-0.2c68.1-1.7,136.2,0.4,204.2-1c62.4-1.3,124.9,0.3,187.3-0.9
		c70.7-1.4,141.5,0.3,212.2-1.1c66.3-1.3,132.5,0.4,198.7-1c66.9-1.4,133.8,0.4,200.7-1c66.7-1.4,133.5,0.4,200.2-1
		c66.6-1.4,133.2-0.2,199.7-0.9c5.9-0.1,11.8-1.2,17.8-0.9c0,3.3,1.3,7.9-0.4,9.6c-1.7,1.7-6.3,0.4-9.6,0.4
		c-503,0-1006.1,0-1509.1,0C396,874.5,396,873.8,396,873.2z"/>
	<path class="st0" d="M182.7,874.2c33.7,0,67.4-0.2,101.1,0c13.6,0.1,27.1-1.7,40.7-1c2.1,0.1,4.4-0.6,5.7,2c-49.2,0-98.3,0-147.5,0
		C182.7,874.8,182.7,874.5,182.7,874.2z"/>
	<path class="st0" d="M396,873.2c0,0.7,0,1.3,0,2c-10.3,0-20.6,0-30.9,0c0.5-2.7,2.7-2,4.3-2C378.3,873.1,387.1,873.2,396,873.2z"/>
	<path class="st0" d="M182.7,874.2c0,0.3,0,0.6,0,1c-13.3,0-26.6,0-39.9,0c0-0.3,0-0.7,0-1C156.1,874.2,169.4,874.2,182.7,874.2z"/>
	<path class="st0" d="M142.8,874.2c0,0.3,0,0.7,0,1c-13,0-25.9,0-38.9,0c0-0.3,0-0.7,0-1C116.9,874.2,129.9,874.2,142.8,874.2z"/>
	<path class="st0" d="M103.9,874.2c0,0.3,0,0.7,0,1c-10,0-19.9,0-29.9,0c2.3-1.9,5.1-0.9,7.6-0.9C89.1,874.1,96.5,874.2,103.9,874.2
		z"/>
</g>
</svg>
