<?xml version="1.0" standalone="no"?>
<!DOCTYPE svg PUBLIC "-//W3C//DTD SVG 20010904//EN"
 "http://www.w3.org/TR/2001/REC-SVG-20010904/DTD/svg10.dtd">
<svg version="1.0" xmlns="http://www.w3.org/2000/svg"
 width="177.000000pt" height="111.000000pt" viewBox="0 0 177.000000 111.000000"
 preserveAspectRatio="xMidYMid meet">

<g transform="translate(0.000000,111.000000) scale(0.100000,-0.100000)"
fill="#000000" stroke="none">
<path d="M715 1079 c-72 -36 -116 -76 -162 -147 -49 -76 -67 -131 -50 -151 13
-15 25 -49 62 -183 15 -52 18 -57 36 -48 17 9 19 22 19 108 0 86 3 105 27 152
30 61 84 119 134 145 19 9 64 19 102 22 85 7 146 -14 205 -71 68 -64 85 -111
90 -248 2 -65 8 -118 13 -118 5 0 9 5 9 10 0 6 8 29 19 53 10 23 29 71 41 107
13 36 29 70 37 76 11 10 10 20 -7 64 -41 103 -116 187 -209 235 -46 23 -61 25
-178 25 -123 0 -131 -2 -188 -31z m145 -3 c0 -2 -8 -21 -17 -42 l-17 -39 -6
35 c-7 40 -3 51 10 30 9 -14 14 -7 11 13 0 4 4 7 9 7 6 0 10 -2 10 -4z m40
-11 c0 -8 5 -15 11 -15 6 0 9 7 5 15 -3 8 0 15 5 15 6 0 9 -9 6 -20 -3 -11 1
-27 10 -35 10 -10 11 -15 2 -15 -6 0 -18 8 -26 18 -14 16 -14 16 -9 0 3 -11 0
-18 -7 -18 -7 0 -12 14 -12 35 0 19 3 35 8 35 4 0 7 -7 7 -15z m86 -6 c1 -8 2
-22 3 -31 1 -25 19 -22 23 4 2 12 8 23 14 25 8 3 8 -6 1 -30 -10 -31 -13 -34
-34 -24 -12 5 -20 13 -17 18 2 4 -3 12 -12 17 -11 6 -15 16 -11 27 8 19 31 15
33 -6z m-196 -36 l0 -37 -30 29 c-17 17 -26 31 -20 33 6 2 18 -4 26 -14 15
-18 15 -18 11 4 -3 12 -1 22 4 22 5 0 9 -17 9 -37z m275 -13 c-9 -16 -20 -30
-25 -30 -5 0 -1 13 8 30 22 39 37 39 17 0z m-333 -9 c15 -27 15 -30 0 -36 -9
-3 -13 -3 -10 1 4 4 1 16 -7 28 -16 22 -19 36 -7 36 4 0 14 -13 24 -29z m364
-16 c-3 -8 -13 -15 -21 -15 -15 0 -15 1 -1 16 9 8 16 21 17 27 0 8 2 8 6 -1 3
-7 2 -19 -1 -27z m-416 15 c0 -5 -5 -10 -11 -10 -5 0 -7 5 -4 10 3 6 8 10 11
10 2 0 4 -4 4 -10z m470 -29 c-22 -43 1 -71 30 -36 7 8 16 12 21 9 6 -3 -2
-15 -16 -26 -25 -19 -27 -19 -45 -3 -11 10 -18 22 -17 29 1 6 -7 10 -18 9 -19
-1 -20 -1 -1 12 10 8 23 12 27 9 5 -3 9 0 9 5 0 6 5 11 10 11 7 0 7 -6 0 -19z
m-445 -9 c4 -10 -3 -12 -28 -7 l-32 7 20 -23 c16 -19 16 -21 2 -10 -10 8 -22
22 -28 32 -8 15 -5 17 26 16 19 -1 37 -8 40 -15z m-77 -72 c6 0 13 8 15 18 4
14 5 14 6 1 0 -9 -6 -22 -14 -29 -11 -10 -19 -8 -39 8 -14 11 -22 22 -19 26 4
3 14 -1 23 -9 9 -8 22 -15 28 -15z m582 5 c-7 -8 -22 -15 -34 -14 l-21 0 21 9
c12 5 25 14 29 20 4 6 9 9 12 6 3 -3 0 -12 -7 -21z"/>
<path d="M880 929 c-101 -28 -152 -59 -97 -59 19 0 18 -3 -13 -23 -32 -20 -33
-22 -13 -25 13 -2 32 6 45 17 29 28 47 27 22 -1 -26 -30 -45 -74 -38 -91 5
-13 -66 -110 -75 -102 -2 3 2 12 10 21 12 15 12 17 0 13 -8 -3 -18 -15 -22
-28 -6 -15 -5 -20 2 -15 8 4 9 -1 4 -15 -6 -20 -5 -21 14 -9 12 7 21 16 21 21
0 4 14 21 30 37 17 16 30 26 30 21 0 -5 -7 -14 -15 -21 -8 -7 -15 -18 -15 -26
0 -7 -14 -27 -32 -43 -18 -17 -29 -33 -26 -37 9 -9 65 36 73 59 4 9 11 17 16
17 5 0 5 -8 -1 -20 -5 -11 -14 -29 -20 -40 -15 -30 -12 -35 9 -16 11 10 22 28
25 42 5 18 13 24 35 24 27 0 42 -16 40 -43 0 -7 -4 -2 -9 11 -14 33 -46 28
-59 -9 -6 -18 -11 -34 -11 -35 0 -2 17 -4 39 -4 42 0 51 13 51 73 0 15 4 27 9
27 5 0 12 24 15 53 3 28 7 62 8 75 3 21 9 23 73 27 54 3 73 1 87 -12 17 -15
18 -14 18 15 0 38 -43 76 -77 68 -18 -5 -21 -2 -18 14 3 14 -5 24 -25 35 -33
17 -59 18 -110 4z m83 -45 c8 -8 -11 -44 -23 -44 -5 0 -7 7 -4 15 4 10 0 15
-15 15 -13 0 -21 -7 -22 -17 0 -11 -2 -13 -6 -5 -9 23 6 42 35 42 16 0 32 -3
35 -6z m27 -54 c0 -5 -6 -11 -12 -11 -7 -1 -20 -3 -28 -4 -8 -1 -25 -3 -37 -4
-16 -1 -21 -6 -17 -16 5 -12 -3 -15 -40 -15 -25 0 -46 4 -46 10 0 14 40 32 57
26 9 -4 22 -1 29 5 8 6 25 9 39 7 14 -3 28 -1 31 3 7 12 24 11 24 -1z m-90
-75 c0 -11 -12 -15 -50 -15 -38 0 -50 4 -50 15 0 11 12 15 50 15 38 0 50 -4
50 -15z m-20 -35 c-13 -9 -13 -10 0 -11 8 0 0 -5 -19 -11 -23 -6 -37 -6 -44 1
-8 8 -7 11 2 11 7 0 9 5 6 10 -4 6 9 10 32 10 28 0 34 -3 23 -10z m8 -57 c-4
-22 -57 -30 -69 -11 -15 23 -10 28 32 28 33 0 40 -3 37 -17z"/>
<path d="M711 823 c-21 -25 -37 -70 -30 -78 2 -2 18 10 36 25 30 27 31 29 12
35 -19 7 -20 8 -3 26 9 10 14 19 11 19 -3 0 -15 -12 -26 -27z"/>
<path d="M747 774 c-16 -19 -25 -34 -20 -34 11 0 63 53 63 63 0 15 -16 4 -43
-29z"/>
<path d="M942 771 c-1 -9 -5 -35 -8 -59 -7 -50 13 -81 55 -83 24 -2 25 -2 3
-6 -13 -3 -34 3 -48 11 -30 20 -30 18 -1 -36 21 -39 25 -42 45 -32 12 6 26 15
30 19 4 5 2 5 -4 2 -7 -4 -14 0 -18 8 -4 10 1 15 16 15 12 0 19 3 15 6 -3 4 0
13 8 21 17 16 20 53 5 53 -5 0 -10 8 -9 18 0 10 3 12 6 5 2 -7 14 -13 24 -13
20 0 20 1 3 30 -11 17 -21 25 -25 19 -4 -8 -15 -6 -35 4 -30 16 -27 19 21 31
11 2 -3 4 -30 3 -38 0 -51 -4 -53 -16z m88 -106 c-14 -17 -30 -20 -30 -4 0 5
4 8 9 4 5 -3 12 -1 16 5 3 5 9 10 12 10 3 0 0 -7 -7 -15z"/>
<path d="M755 740 c-3 -5 -2 -10 4 -10 5 0 13 5 16 10 3 6 2 10 -4 10 -5 0
-13 -4 -16 -10z"/>
<path d="M455 730 c-3 -5 -12 -29 -19 -52 -8 -24 -17 -51 -21 -60 -6 -16 -1
-18 50 -18 l57 0 -6 28 c-12 48 -38 112 -47 112 -4 0 -11 -4 -14 -10z"/>
<path d="M1282 673 c-12 -37 -20 -68 -18 -70 2 -2 26 -3 54 -1 l49 3 -20 68
c-11 37 -25 67 -32 67 -7 0 -22 -30 -33 -67z"/>
<path d="M730 722 c0 -6 -9 -9 -20 -7 -12 2 -21 -3 -25 -16 -10 -30 -4 -30 30
-4 16 13 26 27 22 31 -4 4 -7 2 -7 -4z"/>
<path d="M739 693 c-13 -16 -12 -17 4 -4 9 7 17 15 17 17 0 8 -8 3 -21 -13z"/>
<path d="M1463 658 c-25 -12 -36 -44 -22 -70 12 -22 61 -24 79 -4 30 37 -14
94 -57 74z m48 -24 c15 -19 2 -47 -26 -52 -25 -5 -38 13 -31 42 7 30 36 35 57
10z"/>
<path d="M1482 621 c-11 -6 -10 -10 0 -19 11 -8 14 -7 14 9 0 10 0 19 -1 19 0
0 -6 -4 -13 -9z"/>
<path d="M1042 610 c-8 -13 -8 -20 -2 -20 6 0 13 7 17 15 9 24 -1 27 -15 5z"/>
<path d="M400 570 c0 -5 14 -10 30 -10 17 0 30 5 30 10 0 6 -13 10 -30 10 -16
0 -30 -4 -30 -10z"/>
<path d="M480 570 c0 -5 14 -10 31 -10 17 0 28 4 24 10 -3 6 -17 10 -31 10
-13 0 -24 -4 -24 -10z"/>
<path d="M1245 570 c-4 -6 7 -10 24 -10 17 0 31 5 31 10 0 6 -11 10 -24 10
-14 0 -28 -4 -31 -10z"/>
<path d="M1325 570 c3 -5 17 -10 31 -10 13 0 24 5 24 10 0 6 -14 10 -31 10
-17 0 -28 -4 -24 -10z"/>
<path d="M386 534 c-9 -24 -8 -25 26 -22 22 2 34 9 36 21 5 23 -53 24 -62 1z"/>
<path d="M490 531 c0 -17 6 -21 31 -21 24 0 30 4 27 18 -2 10 -14 18 -31 20
-22 3 -27 -1 -27 -17z"/>
<path d="M1237 543 c-17 -16 -5 -33 22 -33 24 0 41 14 41 36 0 7 -56 5 -63 -3z"/>
<path d="M1332 533 c2 -12 14 -19 35 -21 27 -3 31 -1 26 17 -7 28 -66 31 -61
4z"/>
<path d="M276 499 c-67 -53 13 -163 94 -129 33 14 53 45 63 98 6 30 5 32 -24
32 -25 0 -32 -6 -45 -36 -12 -27 -20 -35 -37 -32 -22 3 -39 48 -19 48 5 0 9
-8 8 -17 0 -10 7 -19 17 -21 25 -5 24 54 -2 68 -25 13 -24 13 -55 -11z"/>
<path d="M595 504 c-9 -9 -15 -26 -13 -38 4 -25 34 -29 32 -3 -1 9 2 17 7 17
12 0 11 -37 -1 -45 -20 -12 -48 6 -54 35 -5 26 -10 30 -37 30 -31 0 -31 -1
-24 -37 8 -48 29 -81 61 -95 50 -23 125 40 111 94 -4 14 1 18 19 18 30 0 30
-6 -2 -53 -36 -54 -27 -69 38 -65 45 3 53 6 53 23 0 13 -8 21 -22 23 -21 3
-34 22 -15 22 5 0 15 11 22 25 7 14 16 25 19 25 20 -1 34 -23 37 -60 5 -79 44
-80 44 -2 0 36 5 50 20 59 18 12 19 9 22 -50 l3 -62 33 -3 c18 -2 39 1 46 7 9
7 22 7 44 -1 24 -9 36 -9 55 1 20 11 32 11 61 1 20 -6 44 -9 54 -6 32 11 60
49 67 94 7 42 7 42 -23 42 -23 0 -32 -6 -38 -22 -7 -23 -7 -23 -16 4 -10 30
-32 38 -65 27 -13 -5 -25 -4 -28 1 -8 13 -82 13 -90 0 -4 -6 -13 -7 -23 -1
-29 15 -299 12 -315 -3 -11 -11 -16 -11 -32 0 -24 18 -30 18 -50 -2z m505 -60
c0 -34 -1 -35 -32 -32 -54 5 -53 68 2 68 28 0 30 -3 30 -36z m66 19 c0 -11 6
-17 16 -17 10 1 15 -2 12 -7 -14 -23 -57 2 -47 27 7 20 21 17 19 -3z m-186 -3
c0 -5 -7 -7 -15 -4 -8 4 -15 8 -15 10 0 2 7 4 15 4 8 0 15 -4 15 -10z m0 -45
c0 -8 -6 -15 -14 -15 -17 0 -28 14 -19 24 12 12 33 6 33 -9z"/>
<path d="M1447 508 c-21 -11 -23 -68 -3 -68 8 0 17 10 19 23 4 19 4 18 6 -5 2
-43 -36 -38 -55 7 -12 29 -20 35 -43 35 -29 0 -29 0 -20 -40 12 -52 27 -76 56
-89 35 -16 48 -14 82 15 23 19 31 34 31 57 -1 51 -38 85 -73 65z"/>
<path d="M22 163 c3 -33 7 -38 31 -41 26 -3 27 -2 26 40 -2 42 -2 42 -8 9 -8
-48 -31 -53 -31 -7 0 20 -5 36 -11 36 -6 0 -9 -16 -7 -37z"/>
<path d="M130 161 c0 -44 19 -58 22 -16 0 14 1 30 2 37 1 6 -5 13 -11 16 -9 2
-13 -9 -13 -37z"/>
<path d="M180 179 c0 -11 -4 -17 -10 -14 -13 8 -13 -1 0 -26 17 -31 30 -22 30
21 0 22 -4 40 -10 40 -5 0 -10 -9 -10 -21z"/>
<path d="M253 160 c0 -25 2 -35 4 -22 2 12 2 32 0 45 -2 12 -4 2 -4 -23z"/>
<path d="M314 163 c17 -50 30 -51 49 -3 8 22 11 40 6 40 -6 0 -15 -15 -21 -32
l-12 -33 -8 33 c-5 17 -13 32 -18 32 -5 0 -3 -17 4 -37z"/>
<path d="M410 160 c0 -40 0 -40 38 -39 30 2 32 3 10 6 -34 5 -37 30 -5 36 l22
4 -22 2 c-32 2 -29 19 5 24 22 3 20 4 -10 6 -38 1 -38 1 -38 -39z"/>
<path d="M520 160 c0 -22 5 -40 10 -40 6 0 10 7 10 17 0 14 2 14 20 -2 11 -10
23 -15 27 -11 4 4 1 11 -7 17 -13 8 -13 10 -1 18 23 15 5 41 -29 41 -28 0 -30
-2 -30 -40z m50 20 c0 -5 -7 -10 -15 -10 -8 0 -15 5 -15 10 0 6 7 10 15 10 8
0 15 -4 15 -10z"/>
<path d="M637 193 c-13 -12 -7 -23 18 -35 34 -15 32 -32 -2 -23 -21 5 -25 4
-17 -5 16 -16 59 -8 59 10 0 8 -10 19 -22 25 -29 12 -30 29 -2 20 15 -5 19 -4
15 4 -8 12 -39 15 -49 4z"/>
<path d="M740 160 c0 -22 5 -40 10 -40 6 0 10 18 10 40 0 22 -4 40 -10 40 -5
0 -10 -18 -10 -40z"/>
<path d="M810 160 c0 -39 1 -41 28 -38 24 3 27 7 27 38 0 31 -3 35 -27 38 -27
3 -28 1 -28 -38z m45 0 c0 -16 -6 -26 -17 -28 -14 -3 -18 3 -18 28 0 25 4 31
18 28 11 -2 17 -12 17 -28z"/>
<path d="M917 160 c-8 -22 -11 -40 -6 -40 5 0 9 5 9 10 0 14 38 12 43 -2 2 -7
7 -10 11 -7 8 7 -24 79 -34 79 -4 0 -14 -18 -23 -40z m33 0 c0 -5 -4 -10 -10
-10 -5 0 -10 5 -10 10 0 6 5 10 10 10 6 0 10 -4 10 -10z"/>
<path d="M1010 160 c0 -41 13 -50 54 -34 21 8 21 60 0 68 -41 16 -54 7 -54
-34z m48 -3 c2 -19 -1 -27 -12 -27 -11 0 -16 10 -16 31 0 38 24 35 28 -4z"/>
<path d="M1178 163 c-19 -45 -17 -49 11 -31 18 11 23 11 31 -2 5 -8 11 -12 15
-9 7 7 -23 79 -33 79 -4 0 -15 -17 -24 -37z m32 -3 c0 -5 -5 -10 -11 -10 -5 0
-7 5 -4 10 3 6 8 10 11 10 2 0 4 -4 4 -10z"/>
<path d="M1288 193 l22 -4 -20 -26 c-28 -35 -25 -43 13 -42 28 1 29 2 9 8
l-24 6 21 27 c28 35 27 38 -11 37 -24 -1 -27 -3 -10 -6z"/>
<path d="M1378 193 c6 -2 12 -20 12 -39 0 -19 5 -34 10 -34 6 0 10 15 10 34 0
19 6 37 13 39 6 3 -4 5 -23 5 -19 0 -29 -2 -22 -5z"/>
<path d="M1470 160 c0 -39 1 -40 33 -39 23 1 26 3 10 6 -13 2 -23 11 -23 18 0
7 10 16 23 18 l22 4 -22 2 c-13 0 -23 5 -23 10 0 5 10 12 23 14 16 3 13 5 -10
6 -32 1 -33 0 -33 -39z"/>
<path d="M1584 186 c-16 -43 20 -86 49 -57 9 9 5 11 -13 9 -26 -3 -36 17 -21
41 8 13 12 13 27 0 15 -12 17 -12 12 1 -6 20 -47 25 -54 6z"/>
<path d="M1687 160 c-8 -22 -11 -40 -6 -40 5 0 9 5 9 10 0 14 38 12 43 -2 2
-7 7 -10 11 -7 8 7 -21 79 -33 79 -4 0 -15 -18 -24 -40z m33 0 c0 -5 -5 -10
-11 -10 -5 0 -7 5 -4 10 3 6 8 10 11 10 2 0 4 -4 4 -10z"/>
</g>
</svg>
