<svg version="1.1" id="Layer_1" xmlns="http://www.w3.org/2000/svg" xmlns:xlink="http://www.w3.org/1999/xlink" x="0px" y="0px" viewBox="0 0 512 512" style="enable-background:new 0 0 512 512;" xml:space="preserve">
<style type="text/css">
	.st0{fill:#010101;}
	.st1{fill:#020202;}
	.st2{fill:#111111;}
	.st3{fill:#121212;}
	.st4{fill:#040404;}
	.st5{fill:#030303;}
	.st6{fill:#070707;}
</style>
<g>
	<path class="st0" d="M393.5,7.7c1.8,2,4.4,1.1,6.6,1.6c12.3,3.3,24.1,16.7,23.6,31.9c-0.4,10.5-0.1,21-0.1,31.5   c0,1.5,0.6,3.2-2.1,3.5c-12.1,1.7-19.8,9.6-26.3,19.1c-1.6,2.4-3.5,4.6-6.1,7.9c0-9.9,0-18.5,0-27.1c0-9.4-0.2-18.9,0.1-28.3   c0.1-3.8-0.6-5-4.8-5c-67,0.2-134,0.2-201.1,0c-4.3,0-5,1.3-5,5.2c0.2,25.3,0.2,50.7,0,76c-0.1,11.3-4.9,20.2-15.1,25.6   c-3.6,1.9-7.4,2.9-11.6,2.9c-26.7-0.1-53.4,0-80.1-0.1c-3.5,0-4.6,0.8-4.6,4.5c0.1,104.1,0.1,208.1,0,312.2c0,3.2,0.9,4,4,4   c104.7-0.1,209.3-0.1,314,0c3.5,0,4.1-1,4.1-4.3c-0.1-44.7-0.1-89.4-0.1-134c0-2.9,0.7-5.2,2.5-7.4c1.5-1.9,2.8-3.9,4.1-5.9   c4.1-6.2,8-12.3,16.5-13.8c4.3-0.7,7.6-4.4,10.9-7.7c1,1.4,0.6,2.8,0.6,4c0,56.5,0,113.1,0,169.6c0,18.3-11,31-29.2,33.6   c-0.3,0-0.6,0.5-0.9,0.8c-0.6,0-1.2,0-1.8,0c-1.2-1.4-2.8-0.9-4.2-0.9c-110.2-0.6-220.3,1.2-330.5-0.9c-2.8-0.1-5.1-1.4-7.4-2.7   c-9.5-5.4-14.7-13.8-17-24.2c0.1-1.2,0.2-2.4,0.2-3.6c0-111,0-222,0-333c0-3-0.1-6-0.1-9c2-6.3,4.3-12.4,9.1-17.2   c33.3-33,66.6-66.1,99.9-99.1c4.1-4,8.9-7,14.7-8.1c4.2,0.9,8.2-0.8,12.5-0.8c72.8,0.1,145.5,0.1,218.3,0c1.8,0,3.9,0.8,5.5-0.9   C392.9,7.7,393.2,7.7,393.5,7.7z M79.2,129.9c1.4,0,2.9,0,4.3,0c21.4,0,42.8,0,64.2,0c6.4,0,7.3-0.8,7.3-7.2c0-22,0-44,0-66   c0-0.9,0.6-2.1-1.4-2.9C129,79,104.2,104.3,79.2,129.9z"/>
	<path class="st1" d="M492.4,149.9c-2.4,0.4-2.5,2.8-3.4,4.3c-27.6,42.3-55.1,84.7-82.7,127c-3.8,5.9-6,6.7-12.6,4   c-2.5-1-2.8,0.8-3.7,2c-15.4,21.7-30.6,43.6-46,65.2c-13.1,18.3-26.5,36.3-43.9,50.9c-5.3,4.4-10.8,8.5-16.8,11.9   c-2.1,1.2-4,3.1-6.9,1.2c-1.3-0.9-2,0.7-2.7,1.6c-1.7,2.5-3.3,5-5.1,7.4c-3.1,4.2-7.5,5.1-11.3,2.5c-3.8-2.7-4.3-6.6-1.3-11   c1.3-2,2.9-3.8,4.2-5.8c1.2-1.9,4.4-3.9,0.2-6.2c-0.9-0.5-0.2-2.5,0-3.8c5.5-27.8,19-51.8,35.2-74.5c16.9-23.7,33.6-47.6,50.5-71.4   c1.6-2.3,2.1-3.6-0.3-5.8c-3.2-3-3.1-6.7-0.2-10.4c19.6-25.7,39.2-51.4,58.9-77c3.4-4.4,6.7-8.8,10.2-13.1c1.5-1.8,1.8-3.3-0.6-4.1   c-2.1-0.7-3.4-5.3-6.5-1.4c-8.7,11.3-17.3,22.5-26,33.8c-11.8,15.4-23.7,30.9-35.5,46.3c-2.8,3.6-7.8,4.6-11,2.1   c-3.9-3-4.2-7-0.9-11.4c12.7-16.5,25.3-33,38-49.4c15.5-20.1,31.1-40.3,46.6-60.4c3.1-4,7.9-5.2,11.2-2.6c3.9,3.1,4.2,7,0.9,11.4   c-1.1,1.4-2.2,2.9-3.3,4.3c-3.3,4.1-2.6,6.3,2.5,8.2c1.3,0.5,2,0.1,2.7-0.8c0.9-1.2,2-2.3,2.7-3.6c5.5-9.6,12.6-10.3,23.6-6.1   c14.2,5.5,26,14,32.1,28.7c0.1,0.3,0.7,0.5,1,0.7C492.4,146.3,492.4,148.1,492.4,149.9z"/>
	<path class="st2" d="M56.9,506.2c110.2,2.1,220.3,0.3,330.5,0.9c1.4,0,3-0.5,4.2,0.9c-111.3,0-222.6,0-333.8,0   C57.5,507.4,57.2,506.8,56.9,506.2z"/>
	<path class="st3" d="M156.3,9.3c0.2-0.5,0.3-1.1,0.5-1.6c78.6,0,157.2,0,235.8,0c-1.6,1.7-3.7,0.9-5.5,0.9   c-72.8,0-145.5,0.1-218.3,0C164.6,8.6,160.5,10.2,156.3,9.3z"/>
	<path class="st4" d="M317.4,254c-5.4,7.7-10.4,14.5-15.1,21.5c-1.1,1.6-2.4,1.9-4.2,1.9c-61.4,0-122.9,0-184.3,0   c-2.5,0-3.4-0.6-3.3-3.2c0.2-5.4,0.4-10.8-0.1-16.2c-0.4-4.3,1.9-4.1,4.8-4.1c57.4,0,114.8,0,172.2,0   C297.1,254,306.8,254,317.4,254z"/>
	<path class="st5" d="M312.3,203.1c-3.5,7-5.5,13.6-4,20.9c0.4,2-0.6,2.7-2.5,2.5c-0.7-0.1-1.5,0-2.2,0c-62.8,0-125.6,0-188.4,0.1   c-3.7,0-5-0.8-4.7-4.6c0.3-5.2,0.2-10.5,0-15.7c-0.1-2.2,0.5-3.2,2.9-3.2C179.5,203.1,245.6,203.1,312.3,203.1z"/>
	<path class="st5" d="M280.9,305.4c-4.9,7.2-9.9,14.4-14.8,21.7c-1.2,1.8-3,1-4.5,1c-45.4,0-90.9,0-136.3,0c-3.9,0-7.8-0.1-11.7,0   c-2.2,0.1-3.3-0.3-3.2-2.9c0.2-6,0.1-12,0-18c0-2,0.7-2.8,2.6-2.5c0.4,0.1,0.9,0,1.3,0c54.4,0,108.9,0,163.3,0   C278.7,304.8,279.8,304.4,280.9,305.4z"/>
	<path class="st6" d="M112.5,424.2c0.1-14.9,10.7-26.2,23.6-24.6c10.6,1.3,18.4,7.4,24.8,15.6c4.8,6.2,6.3,6.7,13,2.4   c9.9-6.3,20.5-10.5,32.4-10.1c9.2,0.3,18.3,2.3,26.9,5.8c4.2,1.7,5.8,5.4,4.4,9.5c-1.1,3.4-5.2,5.4-9.1,4.3   c-7.7-2.1-15.4-4.2-23.6-4.2c-9,0.1-16.5,3.4-23.8,7.9c-3.8,2.3-7.4,5-11.9,6c-8.6,1.8-13.3-4-17.8-9.6c-4-4.9-7.6-10.1-14.1-12   c-4.7-1.4-7.7,0.4-8.9,5.2c-0.4,1.9-0.8,3.8-0.9,5.7c-0.3,4.9-2.9,7.6-7.5,7.6c-4.5,0-7.2-3-7.3-7.8   C112.5,425.4,112.5,424.8,112.5,424.2z"/>
	<path class="st6" d="M133.1,389.1c-6.7,0.1-12.9-2.5-16.7-9.4c-2.1-3.8-1.2-7.7,2.1-9.9c3.3-2.3,7.1-1.8,10.1,1.3   c4.3,4.5,8,4.4,11.8-0.2c3-3.6,7.1-4.2,10.7-1.7c3.2,2.3,4,6.8,1.6,10.4C148.3,386.3,141.9,389.2,133.1,389.1z"/>
</g>
</svg>