 <svg xmlns="http://www.w3.org/2000/svg" xmlns:xlink="http://www.w3.org/1999/xlink" version="1.1" id="Layer_1" x="0px" y="0px" viewBox="0 0 512 512" style="enable-background:new 0 0 512 512;" xml:space="preserve" class="">
<!-- <style type="text/css">
	.st0{fill:url(#SVGID_1_);}
	.st1{fill:url(#SVGID_2_);}
	.st2{fill:url(#SVGID_3_);}
	.st3{fill:url(#SVGID_4_);}
	.st4{fill:url(#SVGID_5_);}
	.st5{fill:url(#SVGID_6_);}
	.st6{fill:url(#SVGID_7_);}
	.st7{fill:url(#SVGID_8_);}
	.st8{fill:url(#SVGID_9_);}
	.st9{fill:url(#SVGID_10_);}
</style> -->
<style>
	path{
		fill:black;
	}
</style>
<g>
	<linearGradient id="SVGID_1_" gradientUnits="userSpaceOnUse" x1="215.8355" y1="72.0996" x2="215.8355" y2="498.2473">
		<stop offset="0" style="stop-color:#86C6ED"/>
		<stop offset="1" style="stop-color:#8777B7"/>
	</linearGradient>
	<path class="st0" d="M196.8,58.3c1.3,5.3,3.3,10.2,6.4,14.7c1.9,2.7,3.9,5.2,6,7.8c2,2.5,3.8,5.1,5.2,8.1c0.2,0.5,0.4,1,0.7,1.3   c0,0.8,0.4,1.5,0.6,2.2c0.9,2.7,1.4,5.4,1.4,8.3c0,1.2,0,2.3,0,3.5c0,1.7-0.3,3.3-0.7,4.9c-0.6,2.8-1.7,5.5-3,8.1   c-1,1.8-2.1,3.5-3.4,5.1c-1.5,2-3.1,3.9-4.7,5.9c-0.9,1.1-1.5,2.4-1.9,3.7c-0.4,1.3-0.4,3.3,0,4.6c0.5,2,1.5,3.7,3.1,5   c1.4,1.1,2.9,1.9,4.7,2.1c3.1,0.4,5.8-0.5,8-2.8c0.4-0.4,0.8-0.9,1.1-1.3c0.8-1,1.6-2,2.4-3c1.3-1.7,2.7-3.4,4-5.2   c0.9-1.2,1.6-2.5,2.4-3.7c1.5-2.5,2.7-5.1,3.7-7.8c1.2-3.1,1.9-6.4,2.6-9.6c0.2-1.2,0.4-2.4,0.4-3.6c0.1-3.7,0.3-7.4-0.3-11.1   c-0.3-1.7-0.6-3.4-0.9-5.1c-0.1-0.3-0.2-0.6-0.3-0.9c-5.3,0-10.6,0-15.8,0c5.3,0,10.6,0,15.8,0c0-0.3,0-0.5-0.1-0.8   c-0.7-2.4-1.5-4.8-2.5-7c-2-4.4-4.5-8.5-7.6-12.2c-1.5-1.8-3-3.7-4.4-5.6c-3.3-4.4-5.1-9.3-5-14.8c0-0.4,0-0.8,0-1.2   c-0.1-1.6,0.2-3.1,0.6-4.6c0.5-2.2,1.4-4.3,2.5-6.2c0.5-1,1.1-1.9,1.7-2.8c0.5-0.7,1-1.4,1.4-2.1c0.6-1.1,1-2.2,1.1-3.4   c0.2-1.4,0-2.7-0.4-4c-0.6-1.8-1.6-3.3-3.2-4.5c-1.2-0.9-2.5-1.6-4-1.8c-0.2,0-0.3-0.2-0.5-0.3c-0.9,0-1.8,0-2.7,0   c-0.2,0.3-0.5,0.3-0.8,0.4c-1.8,0.5-3.4,1.4-4.7,2.7c-0.3,0.4-0.6,0.8-0.9,1.2c-3,3.8-5.2,8.1-6.8,12.6c-0.8,2.2-1.2,4.4-1.7,6.7   c-0.2,1-0.4,2-0.4,3c-0.1,3.3-0.3,6.7,0.3,10C196.2,56.1,196.5,57.2,196.8,58.3z"/>
	<linearGradient id="SVGID_2_" gradientUnits="userSpaceOnUse" x1="258.72" y1="72.0996" x2="258.72" y2="498.2473">
		<stop offset="0" style="stop-color:#86C6ED"/>
		<stop offset="1" style="stop-color:#8777B7"/>
	</linearGradient>
	<path class="st1" d="M499,219.7c0-0.3,0-0.5,0-0.8c0-0.3-0.1-0.7-0.2-1c0-0.1-0.1-0.2-0.1-0.2c-0.1-0.2-0.2-0.3-0.2-0.4   c-0.5-0.9-1.1-1.7-1.8-2.3c-0.3-0.3-0.7-0.6-1.1-0.9c-0.8-0.6-1.7-1-2.7-1.3c-0.4-0.1-0.8-0.2-1.2-0.3c-0.7-0.1-1.3-0.2-2-0.2l0,0   l0,0c-0.2,0-0.4,0-0.5,0c-0.2,0-0.4,0-0.5,0c-0.2,0-0.4,0-0.5,0c-0.2,0-0.4,0-0.5,0c-23.8,0-47.7,0-71.5,0c-0.7,0-1.4,0-2.1,0   c0,0-0.1,0-0.1,0c-0.1,0-0.2-0.1-0.2-0.1c-0.2-0.1-0.3-0.3-0.3-0.5c0-0.3,0-0.6,0-0.9c0-0.3,0-0.6,0-0.9c0-5.6,0-11.3,0-16.9   c0-0.3,0-0.6,0-0.9c0-0.4-0.1-0.9-0.2-1.3c0-0.1-0.1-0.3-0.1-0.4c-0.1-0.3-0.1-0.6-0.2-0.8c-0.4-1.1-0.9-2.1-1.7-3.1   c-1-1.2-2.3-2.1-3.7-2.6c-1.2-0.5-2.6-0.8-3.9-0.7c-0.4,0-0.9,0-1.3,0c-66.4,0-132.8,0-199.2,0c-0.4,0-0.9,0-1.3,0   c-2.9,0.1-5.5,1-7.5,3.3c-1.4,1.6-2.2,3.3-2.2,5.4c0,0.6,0,1.3,0,1.9c0,1.2,0.4,2.3,0.9,3.3c1.2,2.2,3,3.7,5.3,4.5   c0.8,0.3,1.6,0.5,2.4,0.4c1,0,2.1,0,3.1,0c62.6,0,125.1,0,187.7,0c0.6,0,1.3,0,1.9,0c0.3,0,0.5,0,0.8,0.1c0.2,0,0.5,0.3,0.5,0.5   c0,0.6,0.1,1.3,0.1,1.9c0,9.8,0,19.6,0,29.4c0,0.2,0,0.4,0,0.6c0,0.6,0,1.2,0.1,1.7c0,0,0,0,0,0c0,0.8-0.1,1.5-0.1,2.3   c0,11.3,0,22.6,0,34c0,2.2,0,4.3,0,6.5c0,0.5,0,1-0.1,1.5c-0.2,0.9-0.2,1.8-0.2,2.7c0.1,2.7-0.5,5.3-0.5,8c0,0.2,0,0.4-0.1,0.6   c-0.2,0.7-0.2,1.4-0.2,2.1c0,0.6-0.1,1.1-0.1,1.7c-0.1,0.6-0.2,1.3-0.3,1.9c0,0.4-0.1,0.8-0.1,1.1c-0.4,2-0.6,4-0.9,6   c0.1,0,0.1,0,0.2,0c-0.1,0-0.1,0-0.2,0c-0.1,0.6-0.4,1.2-0.4,1.9c-0.3,2.4-1,4.6-1.4,6.9c-0.3,1.8-0.8,3.5-1.3,5.2   c-0.6,2.3-1.2,4.7-2,7c-0.9,2.9-1.9,5.8-2.9,8.7c-0.9,2.7-2,5.4-3.1,8c-1.1,2.7-2.2,5.3-3.5,7.9c-2.1,4.3-4.2,8.5-6.6,12.6   c-1.3,2.1-2.5,4.3-3.8,6.4c-3,4.7-6.2,9.4-9.7,13.8c-0.4,0.5-0.7,1.1-1.1,1.6c0,0,0,0,0,0c-0.2,0.1-0.3,0.2-0.3,0.4   c0,0-0.1,0.1-0.1,0.1c-0.1,0-0.2,0.1-0.2,0.2c-0.2,0.3-0.4,0.5-0.5,0.8c-0.1,0.1-0.2,0.3-0.4,0.4c-0.2,0.1-0.3,0.3-0.4,0.5   c-0.1,0.1-0.2,0.2-0.3,0.3c-0.2,0.3-0.4,0.5-0.5,0.8c-0.5,0.3-0.9,0.7-1.1,1.2c0,0-0.1,0.1-0.1,0.1c-0.3,0.1-0.4,0.4-0.5,0.7   c-0.1,0-0.1,0.1-0.1,0.2c-0.2,0.1-0.5,0.3-0.6,0.4c-0.6,0.6-1.2,1.2-1.7,1.8c-1.1,1.4-2.4,2.7-3.6,4c-1,1.1-2,2.2-3,3.2   c-0.6,0.6-1.2,1.2-1.8,1.7c-0.5,0.5-1,0.9-1.6,1.4c-1.8,1.7-3.6,3.5-5.5,5.1c-2.4,2.1-4.9,4.2-7.4,6.1c-3,2.4-6.1,4.7-9.3,6.9   c-3.1,2.1-6.3,4.2-9.5,6.1c-0.8,0.5-1.6,0.8-2.5,0.7c-0.4,0-0.8,0-1.2,0c-58.6,0-117.2,0-175.7,0c-0.4,0-0.9,0-1.3,0   c-0.8,0.1-1.5-0.2-2.2-0.6c-2.2-1.4-4.4-2.8-6.7-4.2c-2.4-1.6-4.8-3.2-7.1-4.9c-2.6-1.9-5.2-3.9-7.7-6c-1-0.9-2.1-1.7-3.1-2.6   c-1.6-1.4-3.3-2.8-4.9-4.3c-3-2.8-5.8-5.8-8.7-8.7c-2-2-3.9-4.2-5.8-6.4c-0.1-0.1-0.3-0.2-0.5-0.3c0,0,0,0,0,0c0,0-0.1-0.1-0.1-0.1   c-0.2-0.5-0.6-0.9-1.1-1.2c-0.2-0.3-0.4-0.5-0.5-0.8c0-0.1-0.1-0.2-0.2-0.2c0,0-0.1-0.1-0.1-0.1c0-0.2-0.1-0.3-0.3-0.4   c-0.1-0.2-0.2-0.3-0.4-0.4c-0.1-0.1-0.3-0.3-0.4-0.4c-0.1-0.1-0.1-0.3-0.2-0.4c0-0.1-0.1-0.2-0.2-0.2c0,0-0.1-0.1-0.1-0.1   c0-0.2-0.1-0.3-0.3-0.3c-0.3-0.6-0.8-1.1-1.2-1.6c-0.1-0.1-0.2-0.2-0.3-0.3c-0.2-0.3-0.4-0.6-0.6-0.9c0-0.1-0.1-0.2-0.2-0.2   c0,0-0.1-0.1-0.1-0.1c0-0.2-0.1-0.3-0.3-0.3c-0.2-0.3-0.3-0.6-0.5-0.8c-1.1-1.6-2.3-3.2-3.5-4.8c-2.2-3.2-4.4-6.5-6.4-9.8   c-1.9-3.2-3.8-6.5-5.6-9.9c-2.5-4.8-4.8-9.8-6.9-14.8c-1.3-3.2-2.6-6.4-3.7-9.7c-0.8-2.4-1.6-4.9-2.3-7.3   c-1.1-3.7-2.2-7.3-2.9-11.1c0-0.2-0.2-0.5-0.3-0.7c-0.1-0.5-0.1-1-0.2-1.5c-0.5-2.4-1-4.9-1.4-7.4c-0.2-1.3-0.5-2.6-0.7-4   c-0.1-1.3-0.5-2.5-0.5-3.8c0-0.3,0-0.5-0.1-0.8c-0.2-0.7-0.2-1.4-0.3-2.1c0-0.4,0-0.8-0.1-1.1c-0.3-1.1-0.3-2.3-0.3-3.4   c0-0.4,0-0.8-0.1-1.1c-0.3-1.2-0.2-2.4-0.3-3.6c0-1.1,0-2.2-0.1-3.3c-0.2-1.3-0.2-2.6-0.2-3.8c0-10.3,0-20.6,0-31   c0-0.8,0-1.5-0.1-2.3c0-0.6,0.1-1.3,0.1-1.9c0-4.4,0-8.8,0-13.3c0-7.9,0-15.8,0-23.6c0-0.6,0-1.2,0-1.7c0-0.6,0.4-0.9,1-0.9   c0.6,0,1.3,0,1.9,0c19.3,0,38.7,0,58,0c0.8,0,1.7,0,2.5,0c1,0,1.9-0.2,2.8-0.5c1.4-0.6,2.8-1.3,3.8-2.6c2.3-2.9,2.9-6.1,1.7-9.6   c-1-2.7-2.9-4.5-5.6-5.5c-1.3-0.5-2.7-0.7-4.1-0.7c-23.5,0-46.9,0-70.4,0c-1,0-1.9,0.1-2.9,0.3c-2.8,0.5-4.8,2.1-6.2,4.4   c-0.6,1-1.1,2-1.1,3.2c-0.2,0-0.5,0-0.7,0.1c0,30.3,0,60.5,0,90.8c0.3,0,0.5,0,0.8,0c0-0.5,0-1,0-1.5c0,0.5,0,1,0,1.5   c0,1.2,0,2.3,0.1,3.5c0,0.4,0,0.8,0.1,1.1c0.2,1,0.2,2,0.3,3.1c0,0.7,0,1.4,0.2,2.1c0.1,0.8,0.2,1.5,0.2,2.3c0,0.4,0,0.9,0.1,1.3   c0.2,1.5,0.5,2.9,0.6,4.4c0.2,2.2,0.6,4.3,0.9,6.5c0.3,2.1,0.7,4.2,1.1,6.2c0.1,0.4,0.2,0.7,0.4,1.1c-0.1,0.7,0.2,1.4,0.4,2.1   c0.3,1.6,0.6,3.3,1.1,4.9c0.5,1.9,1,3.8,1.5,5.7c1.2,4.5,2.6,9,4.2,13.4c1.3,3.7,2.7,7.3,4.2,10.9c1.4,3.2,2.8,6.5,4.3,9.6   c1.9,3.9,3.9,7.6,6,11.4c1.7,3,3.5,6,5.4,8.9c2,3.1,4,6.1,6.2,9c0.8,1.1,1.5,2.3,2.5,3.1c0.1,0.2,0.2,0.5,0.3,0.7   c1.3,1.7,2.6,3.5,4,5.1c1.9,2.3,3.8,4.5,5.7,6.8c0,0,0.1,0.1,0.1,0.1c3.7,4,7.4,8,11.4,11.7c2.5,2.3,5,4.6,7.6,6.8   c1.1,0.9,2.2,1.8,3.3,2.7c0.4,0.3,0.8,0.7,1.1,1c0.1,0.1,0.1,0.2,0.1,0.3c0,0.2-0.1,0.2-0.3,0.2c-0.6,0-1.3,0-1.9,0   c-19.9,0-39.8,0-59.8,0c-0.9,0-1.8,0-2.7,0c-2.2,0-4,0.9-5.6,2.3c-1.3,1.1-2.2,2.5-2.7,4.1c-0.1,0.4-0.2,0.7-0.4,1.1   c-0.1,0.3-0.4,0.3-0.6,0.3c0,1.7,0,3.3,0,5c0.3,0.1,0.6,0.3,0.6,0.7c0.1,0.2,0.1,0.5,0.1,0.8c0.2,4.1,1,8.1,2.1,12   c1.4,5,3.5,9.6,6,14.1c1.4,2.6,3.1,5,5,7.3c1.7,2.2,3.5,4.2,5.5,6.1c3.4,3.3,7.2,6.2,11.2,8.7c4.1,2.5,8.5,4.5,13.1,6   c3,1,6.1,1.7,9.3,2.2c1.2,0.2,2.4,0.4,3.6,0.3c0,0,0,0,0,0c0.2,0.1,0.4,0.3,0.7,0.3c0.6,0.1,1.1,0.1,1.7,0.1l0,0c1.2,0,2.3,0,3.5,0   c-1.2,0-2.3,0-3.5,0c0,0.1,0,0.3,0,0.4c100.1,0,200.3,0,300.4,0c0.2-0.3,0.5-0.3,0.8-0.4c0.5-0.1,1,0,1.4-0.3   c2.6-0.1,5.1-0.6,7.6-1.1c5.7-1.2,11.2-3.3,16.3-6.1c3-1.7,5.9-3.6,8.6-5.8c2.2-1.8,4.3-3.6,6.3-5.6c3.2-3.4,6.1-7.1,8.5-11.1   c1.8-2.9,3.3-6,4.5-9.1c1.3-3.3,2.3-6.6,3-10.1c0.4-2.1,0.7-4.3,1-6.4c0.1-1,0.1-2,0.1-3.1c0-1.2,0-2.4,0-3.7c0-3-1.4-5.3-3.7-7   c-1.5-1.2-3.2-1.8-5.2-1.7c-0.9,0-1.8,0-2.7,0c-27.2,0-54.5,0-81.7,0c-0.7,0-1.4,0-2.1-0.1c-0.1,0-0.2-0.1-0.3-0.2   c0-0.1,0-0.3,0.1-0.3c0.2-0.2,0.3-0.4,0.5-0.5c0.6-0.5,1.3-1,1.9-1.6c1.5-1.2,2.9-2.5,4.4-3.7c0,0,0.1-0.1,0.1-0.1   c4.5-4,8.7-8.1,12.8-12.5c2.1-2.2,4.1-4.5,6.1-6.9c2.5-3,5-6,7.3-9.1c0.2-0.3,0.3-0.6,0.5-0.8c-0.1-0.2-0.3-0.4-0.4-0.6   c0.2,0.2,0.3,0.4,0.4,0.6c0.5-0.5,0.9-1,1.4-1.6c0.2-0.3,0.5-0.6,0.7-0.9c1.9-2.7,3.8-5.3,5.5-8.1c1.4-2.2,1.2-1.9,3.5-1.9   c7.8,0,15.6,0,23.4,0c1.5,0,2.9,0.1,4.4-0.2c0.3-0.1,0.6,0,1,0c1.8-0.1,3.6,0,5.4-0.4c0.2,0,0.4,0,0.6,0c1.3-0.2,2.7-0.3,4-0.5   c3.7-0.7,7.4-1.5,11-2.5c4.1-1.2,8.1-2.7,12-4.5c2.6-1.2,5.1-2.4,7.5-3.9c1.9-1.2,3.9-2.3,5.7-3.6c2.5-1.7,4.9-3.5,7.2-5.4   c2.3-2,4.6-3.9,6.7-6.1c0.7-0.7,1.3-1.6,2.1-2.3c2-2,3.7-4.1,5.3-6.3c3.3-4.4,6.3-9,8.8-14c0.8-1.6,1.5-3.2,2.3-4.9   c0.6-1.3,1.1-2.6,1.6-3.9c1.7-4.4,3-8.8,4-13.4c0.2-1.1,0.5-2.2,0.5-3.4c0.1-0.7,0.3-1.5,0.4-2.2c0.1-0.6,0.2-1.2,0.3-1.9   c0-0.4,0.1-0.8,0.1-1.1c0-1.3,0-2.6,0.1-4c0.1,0,0.2,0,0.4,0c0-25,0-50,0-75C499.2,219.7,499.1,219.7,499,219.7z M412.8,446.6   c0.8,0,1.5,0,2.3,0.1c0.2,0,0.5,0.4,0.4,0.6c0,0.3-0.1,0.6-0.1,0.9c-0.5,2.1-1.2,4-2.1,6c-1.3,3-2.9,5.9-4.9,8.5   c-2.6,3.4-5.5,6.4-8.9,9c-2.3,1.7-4.8,3.2-7.4,4.5c-3.3,1.5-6.6,2.7-10.2,3.4c-2.6,0.5-5.2,0.8-7.8,0.8c-1,0-1.9,0-2.9,0   c-96,0-192.1,0-288.1,0c-1.2,0-2.3,0-3.5,0c-6.2-0.1-12-1.5-17.6-4.2c-3.1-1.5-6-3.2-8.6-5.4c-1.7-1.4-3.3-2.8-4.7-4.5   c-1.5-1.7-2.9-3.4-4.1-5.3c-1.7-2.5-3.1-5.3-4.2-8.2c-0.6-1.4-1.1-2.9-1.4-4.4c-0.1-0.4-0.1-0.8-0.1-1.1c0-0.2,0.3-0.5,0.5-0.5   c0.3,0,0.5-0.1,0.8-0.1c0.6,0,1.3,0,1.9,0c61.8,0,123.6,0,185.4,0S351,446.6,412.8,446.6z M413.1,278.7c0-0.1,0-0.3,0-0.4   c0-1.3,0-2.6,0-3.9c0-1.3,0-2.6,0-3.9c0-0.1,0-0.2,0-0.3c0-0.1,0-0.2,0-0.3c0-0.2,0-0.4,0.1-0.7c0-0.1,0.1-0.2,0.2-0.3   c0,0,0.1-0.1,0.1-0.1c0,0,0,0,0.1,0c0.2-0.1,0.4-0.1,0.6-0.1c0.3,0,0.5,0,0.8,0c0.3,0,0.5,0,0.8,0c8.3,0,16.6,0,25,0   c0.6,0,1.3,0,1.9,0.1c0,0,0.1,0,0.1,0c0.1,0,0.2,0.1,0.2,0.1c0,0,0.1,0.1,0.1,0.2c0,0.1,0,0.1,0.1,0.2c0,0.1,0,0.2,0,0.3   c0,0.1,0,0.2,0,0.3c0,0.2,0,0.4,0,0.6c0,6.3,0,12.7,0,19c0,0.7,0,1.4-0.1,2.1c0,0.2-0.1,0.5-0.1,0.7c0,0.3-0.1,0.6-0.1,0.9   c0,0.1,0,0.3-0.1,0.4c-0.1,0.6-0.1,1.1-0.2,1.7c0,0.1,0,0.3-0.1,0.4c-0.3,1.3-0.6,2.6-1,3.9c-0.1,0.4-0.3,0.8-0.5,1.3   c-0.5,1.2-0.9,2.4-1.4,3.6c0,0,0,0,0,0c-0.2,0.3-0.5,0.6-0.7,0.9c-1.5,2.7-3.3,5.1-5.5,7.3c-1.8,1.8-3.6,3.4-5.7,4.8   c-3.5,2.3-7.2,3.8-11.2,4.7c-3.2,0.7-5.3,0.9-8.6,0.8c-0.1,0-0.3,0-0.4,0c-0.2,0-0.4-0.4-0.4-0.6c0.2-0.7,0.3-1.5,0.5-2.2   c0.5-2,0.9-4,1.4-6c0.3-1.2,0.5-2.4,0.7-3.6c0.2-1.5,0.5-2.9,0.8-4.3c0-0.2,0-0.4,0-0.6c0.2-0.7,0.4-1.5,0.5-2.3   c0.2-1.4,0.4-2.8,0.6-4.2c0-0.3,0.1-0.6,0.1-1c0.1-0.9,0.1-1.8,0.3-2.7c0.1-0.4,0.1-0.9,0.1-1.3c0-0.3,0.1-0.6,0.1-1   c0-0.3,0.1-0.6,0.1-1c0.1-0.6,0.1-1.1,0.1-1.7c0.1-1.2,0-2.4,0.3-3.6c0-0.1,0-0.2,0.1-0.3c0-0.1,0-0.1,0-0.2c0-0.1,0-0.2,0-0.3   c0-0.2,0-0.3,0-0.5c0-0.6,0-1.2,0-1.8c0-0.3,0-0.6,0-0.9s0-0.6,0-0.9c0-0.3,0-0.6,0.1-1c0-0.3,0.1-0.6,0.1-1   C413,279.6,413.1,279.2,413.1,278.7z M479,304.1c-0.7,3.8-1.9,7.6-3.4,11.2c-0.7,1.8-1.5,3.6-2.3,5.3c-1.7,3.4-3.7,6.8-6,9.9   c-1.2,1.6-2.4,3.2-3.6,4.7c-0.4,0.6-1,1-1.4,1.6c-0.5,0.6-1,1.2-1.5,1.7c-0.4,0.5-0.9,0.9-1.3,1.4c-0.9,0.9-1.9,1.7-2.8,2.6   c-1.1,0.9-2.1,1.8-3.2,2.7c-2.5,2-5.2,3.8-7.9,5.4c-2.1,1.2-4.2,2.4-6.5,3.4c-2.9,1.3-5.8,2.4-8.8,3.4c-3.1,0.9-6.2,1.7-9.3,2.2   c-1.3,0.2-2.6,0.4-4,0.6c-0.4,0.1-0.9,0.1-1.3,0.1c-1.2,0.1-2.4,0-3.6,0.3c-0.4,0.1-0.8,0.1-1.2,0.1c-5.4,0-10.9,0-16.3,0   c-0.3,0-0.5,0-0.8-0.1c-0.2,0-0.3-0.3-0.3-0.4c0-0.1,0.1-0.2,0.1-0.4c0.6-1.3,1.2-2.6,1.8-3.8c1.8-3.8,3.4-7.7,4.9-11.7   c0.3-0.7,0.5-1.3,0.8-2c0.1-0.3,0.3-0.4,0.6-0.4c0.5,0,1,0,1.5,0c2.6,0,5.3,0,7.9,0c0.8,0,1.7,0,2.5-0.2c0.2-0.1,0.5-0.1,0.8-0.1   c3.1-0.2,6.2-0.9,9.2-1.7c4.4-1.2,8.4-3.1,12.3-5.3c2.1-1.2,4.1-2.6,6-4.1c2.9-2.3,5.4-4.9,7.9-7.6c0.9-1,1.6-2.2,2.4-3.2   c0,0,0,0,0,0c0.2-0.1,0.3-0.2,0.3-0.4l0,0c0.1-0.1,0.2-0.2,0.3-0.4c0.4-0.7,0.8-1.3,1.2-2c0.1-0.1,0.2-0.2,0.3-0.3   c0.3-0.5,0.6-1.1,0.9-1.6c0.1-0.1,0.2-0.2,0.2-0.3c1.1-2.1,2.1-4.1,3-6.3c0.3-0.7,0.6-1.4,0.7-2.1l0,0c0.2-0.4,0.3-0.8,0.5-1.2   c0.3-0.8,0.5-1.6,0.7-2.4c0.1-0.4,0.2-0.8,0.3-1.2c0.2-0.8,0.4-1.6,0.5-2.4c0.2-0.8,0.3-1.6,0.4-2.5c0-0.3,0.1-0.6,0.1-1   c0.1-0.6,0.1-1.3,0.2-1.9c0-0.3,0-0.6,0-1c0,0,0-0.1,0-0.1c0-0.1,0-0.2,0-0.3c0.3-1.3,0.3-2.6,0.3-3.9c0-0.4,0-0.9,0-1.3   c0-4.4,0-8.8,0-13.3s0-8.8,0-13.3c0-0.4,0-0.9-0.1-1.3c0-0.2,0-0.4-0.1-0.7c0-0.2-0.1-0.4-0.1-0.7c-0.1-0.6-0.2-1.2-0.4-1.7   c0-0.1-0.1-0.2-0.1-0.3c-0.1-0.2-0.2-0.4-0.3-0.6c-0.2-0.3-0.3-0.6-0.5-0.9c-0.2-0.3-0.4-0.6-0.6-0.8c-0.1-0.2-0.3-0.4-0.4-0.5   c-0.1-0.1-0.2-0.2-0.3-0.4c-0.4-0.4-0.7-0.7-1.1-1c-0.1-0.1-0.3-0.2-0.4-0.3c-0.3-0.2-0.6-0.3-0.9-0.5c-0.2-0.1-0.3-0.1-0.5-0.2   c-1.4-0.5-2.8-0.7-4.3-0.7c-2.9,0-5.8,0-8.7,0c-2.9,0-5.8,0-8.7,0c-5.8,0-11.7,0-17.5,0l0,0c-0.5,0-1,0-1.5,0l0,0   c-0.1,0-0.3,0-0.4,0c-0.4,0-0.7,0-0.9,0c0,0-0.1,0-0.1,0c-0.1,0-0.2,0-0.2-0.1c-0.4-0.2-0.4-0.7-0.4-2c0-3.3,0-6.5,0-9.8   c0-0.3,0-0.6,0-1c0-0.3,0-0.6-0.1-1c0,0,0,0,0,0c0-0.2,0-0.3,0.1-0.5c0-0.3,0-0.6,0.1-0.9c0-0.3,0-0.6,0-0.9c0-0.5,0-0.9,0-1.4   c0-0.3,0.1-0.6,0.1-0.9c0-0.1,0.1-0.2,0.2-0.2c0,0,0.1,0,0.1,0c0.2-0.1,0.4-0.1,0.6-0.1c0.5,0,1,0,1.5,0c10.4,0,20.9,0,31.3,0   s20.9,0,31.3,0c0.6,0,1.2,0,1.7,0c0.1,0,0.2,0,0.3,0.1c0.2,0.1,0.3,0.2,0.4,0.5c0,0.1,0,0.1,0.1,0.2s0,0.1,0,0.2c0,0.4,0,0.8,0,1.2   c0,0.7,0,1.4,0,2.1c0,0.8,0,1.5,0,2.3c0,16.7,0,33.4,0,50.1c0,1.6,0.1,3.2-0.2,4.8c-0.1,0.4,0,0.9-0.1,1.3c0,1.2-0.1,2.3-0.3,3.4   c-0.2,1.2-0.3,2.4-0.5,3.6c-0.1,0.5-0.2,1-0.3,1.5c-0.1,0.4-0.1,0.9-0.1,1.3c0.2,0.1,0.3,0.2,0.5,0.2c-0.2-0.1-0.3-0.1-0.5-0.2   C479.2,303.8,479.1,303.9,479,304.1z M480.5,304c0.1,0,0.2,0,0.3,0C480.7,304,480.6,304,480.5,304z"/>
	<linearGradient id="SVGID_3_" gradientUnits="userSpaceOnUse" x1="267.9382" y1="72.0996" x2="267.9382" y2="498.2473">
		<stop offset="0" style="stop-color:#86C6ED"/>
		<stop offset="1" style="stop-color:#8777B7"/>
	</linearGradient>
	<path class="st2" d="M248.1,75c0,0.9,0.2,1.8,0.4,2.7c0.6,3.5,1.7,6.8,3.1,10.1c1.5,3.4,3.5,6.5,5.8,9.5c1.7,2.1,3.4,4.2,5,6.3   c0.5,0.7,1,1.3,1.5,2c1.6,2.5,3,5.2,3.9,8.1c0.2,0.5,0.4,1.1,0.6,1.6c0.1,0.8,0.3,1.6,0.4,2.5c0.2,1.2,0.4,2.4,0.5,3.6   c0.1,1.6,0.2,3.2-0.2,4.8c-0.1,0.4-0.1,0.8-0.1,1.1c0,0.4-0.1,0.8-0.1,1.1c-0.5,2.5-1.1,4.8-2.1,7.2c-1.2,2.8-2.7,5.3-4.6,7.7   c-1.2,1.6-2.5,3.1-3.7,4.6c-0.6,0.8-1.2,1.6-1.8,2.5c-1,1.4-1.3,3-1.4,4.7c-0.1,1.2,0.3,2.3,0.6,3.4c0.4,1.3,1.1,2.4,2,3.3   c2.7,2.7,6,3.6,9.7,2.5c1.2-0.3,2.3-0.9,3.2-1.7c0.7-0.7,1.4-1.5,2.1-2.2c1.3-1.5,2.4-3.1,3.7-4.7c1.6-1.9,2.9-3.9,4.2-5.9   c0.9-1.4,1.7-2.9,2.4-4.4c0.6-1.3,1.2-2.7,1.7-4.1c1.8-4.6,2.9-9.4,3.1-14.4c0-0.3,0-0.5,0-0.8c0.4-1.6,0.2-3.3,0.2-5   c0-0.4-0.1-0.8-0.1-1.1c-0.1-0.7-0.2-1.4-0.2-2.1c-0.1-1.1-0.3-2.1-0.6-3.2c-0.1-1.2-0.2-2.4-0.6-3.6c-0.7-2.5-1.4-4.9-2.4-7.3   c-0.7-1.7-1.6-3.4-2.4-5c-1.2-2.2-2.5-4.3-4.1-6.3c-0.7-0.9-1.3-1.7-2-2.6c-1.1-1.5-2.3-2.9-3.5-4.4c-2.3-2.9-4-6.1-4.9-9.7   c-0.3-1-0.3-2-0.5-3c-0.2-1-0.2-2-0.2-3.1c-0.1-1.6,0.2-3.1,0.5-4.6c0.3-1.7,0.8-3.4,1.5-4.9c0.9-1.9,1.8-3.7,3.1-5.3   c0.1-0.1,0.1-0.2,0.2-0.3c1.5-1.9,2.2-4,2-6.5c-0.1-1.6-0.4-3-1.3-4.3c-0.5-0.7-1-1.3-1.6-1.9c-1.8-1.8-4.1-2.6-6.6-2.6   c-2.5,0-4.7,1.1-6.6,2.8c-0.1,0.1-0.2,0.2-0.3,0.3c-2.1,2.7-4.1,5.6-5.6,8.7c-1,2.1-1.9,4.2-2.5,6.4c-0.7,2.4-1.3,4.8-1.5,7.3   c0,0.3-0.1,0.6-0.2,0.9c-0.2,1.4-0.2,6.5,0,7.9C248,74.2,248.1,74.6,248.1,75z"/>
	<linearGradient id="SVGID_4_" gradientUnits="userSpaceOnUse" x1="163.7341" y1="72.0996" x2="163.7341" y2="498.2473">
		<stop offset="0" style="stop-color:#86C6ED"/>
		<stop offset="1" style="stop-color:#8777B7"/>
	</linearGradient>
	<path class="st3" d="M143.9,73.3c0.1,1.2,0.2,2.4,0.4,3.6c0.3,2,0.8,3.9,1.4,5.8c0.8,2.7,2,5.3,3.3,7.8c1,2,2.3,3.9,3.6,5.7   c1.5,2,3.2,4,4.8,6c1.2,1.6,2.5,3.1,3.4,4.9c0.2,0.4,0.6,0.8,0.9,1.2c0.2,0.4,0.3,0.8,0.5,1.2c2.1,4.7,3.2,9.5,3.1,14.7   c-0.1,2.1-0.4,4.1-0.8,6.1c-1,4.4-2.9,8.5-5.6,12.1c-1.5,2.1-3.2,4-4.8,6c-0.5,0.6-1,1.2-1.4,1.8c-0.9,1.4-1.5,3-1.4,4.7   c0,0.5,0,1,0,1.5c0.1,0.5,0.2,1,0.3,1.5c0.4,1.7,1.5,3.1,2.8,4.3c1.7,1.6,3.8,2.3,6.1,2.4c1.3,0.1,2.5-0.3,3.7-0.7   c1.3-0.5,2.8-1.6,3.7-2.7c0.8-1.1,1.7-2.1,2.5-3.1c1.1-1.4,2.1-2.7,3.2-4.1c1.4-1.8,2.6-3.6,3.7-5.6c1.1-1.9,2.1-4,3-6   c0.9-2.1,1.6-4.3,2.2-6.5c0.6-2.2,1.1-4.3,1.2-6.6c0-0.3,0-0.6,0.1-0.9c0.2-0.6,0.2-1.3,0.2-1.9c0-1.2,0-2.3,0-3.5   c0-4.3-0.2-4.4-0.8-8.8c-0.3-1.7-0.6-3.4-1.2-5c-0.2-0.5-0.3-1-0.6-1.4c-0.1-1.3-0.7-2.5-1.2-3.6c-1.5-3.8-3.4-7.3-5.8-10.6   c-1.8-2.5-3.7-4.9-5.7-7.3c-1.9-2.3-3.5-4.7-4.5-7.5c-0.8-2-1.4-4.1-1.5-6.3c0-0.4-0.1-0.8-0.2-1.1c-0.2-0.9-0.2-1.8,0-2.7   c0.1-0.6,0.1-1.1,0.2-1.7c0-0.4,0-0.8,0.1-1.1c0.5-2.4,1.2-4.7,2.4-6.9c0.7-1.4,1.5-2.7,2.4-3.9c1.1-1.4,1.9-2.9,2.1-4.7   c0.1-0.6,0.2-1.1,0.2-1.7c-0.2-1.9-0.7-3.6-1.8-5.2c-0.6-0.9-1.3-1.6-2.1-2.2c-0.8-0.5-1.6-1-2.6-1.3c-1.2-0.4-2.3-0.7-3.6-0.5   c-1.2,0.2-2.4,0.5-3.5,1c-1.5,0.7-2.7,1.8-3.6,3.1c-1.4,1.8-2.6,3.6-3.7,5.6c-1,1.8-1.9,3.7-2.6,5.6c-0.7,1.9-1.3,3.8-1.7,5.7   c-0.5,2.1-0.9,4.3-0.9,6.4c0,0.3,0,0.5-0.1,0.8c-0.3,1.6-0.3,3.2,0,4.8C143.8,72.6,143.8,73,143.9,73.3z"/>
	<linearGradient id="SVGID_5_" gradientUnits="userSpaceOnUse" x1="337.9001" y1="72.0996" x2="337.9001" y2="498.2473">
		<stop offset="0" style="stop-color:#86C6ED"/>
		<stop offset="1" style="stop-color:#8777B7"/>
	</linearGradient>
	<path class="st4" d="M348.9,282.8c0,0.4,0,0.9-0.1,1.3c-0.2,0.8-0.2,1.5-0.2,2.3c0,0.4,0,0.9-0.1,1.3c-0.2,1.5-0.4,2.9-0.6,4.4   c-0.2,1.3-0.3,2.5-0.5,3.8c-0.5,2.6-1,5.3-1.6,7.9c-0.3,1-0.6,2.1-0.6,3.2c-0.1,0.2-0.3,0.4-0.3,0.7c-0.4,1.2-0.7,2.5-1,3.7   c-2,6.7-4.5,13.2-7.5,19.5c-1.4,3-3,6-4.6,8.8c-2.7,4.7-5.7,9.3-8.9,13.7c-2,2.7-4,5.3-6.2,7.8c-1.8,2.1-3.6,4.2-5.6,6.1   c-0.2,0.2-0.5,0.4-0.7,0.7c-0.4,0.4-0.7,0.9-1,1.4c-1,1.6-1.5,3.4-1.4,5.3c0.1,2.5,1,4.6,2.8,6.3c1.7,1.7,3.9,2.7,6.4,2.6   c0.4,0,0.8,0,1.2,0c1.9-0.1,3.7-0.8,5-2.1c1.9-1.8,3.7-3.7,5.5-5.6c1.3-1.4,2.4-2.8,3.6-4.2c1.9-2.2,3.6-4.5,5.4-6.8   c1.4-1.9,2.7-3.9,4.1-5.8c3.1-4.5,5.9-9.1,8.4-14c1.8-3.5,3.6-7.1,5.2-10.7c1.3-3.1,2.6-6.3,3.8-9.4c1.5-4.2,2.8-8.4,3.9-12.6   c0.4-1.5,0.8-3,1-4.5c0.1-0.2,0.2-0.3,0.3-0.5c0.2-0.7,0.3-1.5,0.5-2.3c0.4-1.9,0.8-3.9,1.1-5.8c0.3-1.4,0.6-2.9,0.7-4.4   c0.1-1.5,0.5-2.9,0.5-4.4c0-0.3,0-0.6,0.1-1c0.2-0.7,0.2-1.4,0.2-2.1c0-0.5,0-1,0.1-1.5c0.3-1.1,0.2-2.2,0.3-3.2   c0-1.3-0.1-2.6,0.1-3.8c0.2-1.6,0.2-3.2,0.2-4.8c0-2.2-0.6-4.2-1.9-5.9c-1.5-2.1-3.6-3.3-6.1-3.7c-1.5-0.3-3.1-0.1-4.6,0.4   c-1.5,0.5-2.9,1.4-4,2.6c-1.5,1.7-2.4,3.8-2.3,6.2c0,1.5,0.1,3.1-0.2,4.6c-0.1,0.4,0,0.8,0,1.2C349,280.5,348.9,281.7,348.9,282.8z   "/>
	<linearGradient id="SVGID_6_" gradientUnits="userSpaceOnUse" x1="286.3952" y1="72.0996" x2="286.3952" y2="498.2473">
		<stop offset="0" style="stop-color:#86C6ED"/>
		<stop offset="1" style="stop-color:#8777B7"/>
	</linearGradient>
	<path class="st5" d="M286.1,407.4c3.1-0.1,5.7-1.3,7.7-3.7c1.5-1.8,2.2-3.9,2-6.2c-0.1-3-1.5-5.4-3.8-7.2c-1.6-1.3-3.4-1.6-5.3-1.9   c-0.3,0-0.5,0-0.8,0c-1.7,0.2-3.2,0.6-4.7,1.6c-1.8,1.2-3.1,2.8-3.9,4.8c-0.4,1-0.4,2.1-0.4,3.3c0,0.8,0,1.7,0.3,2.5   C278.3,404.2,281.6,407.2,286.1,407.4z"/>
	<linearGradient id="SVGID_7_" gradientUnits="userSpaceOnUse" x1="153.0224" y1="72.0996" x2="153.0224" y2="498.2473">
		<stop offset="0" style="stop-color:#86C6ED"/>
		<stop offset="1" style="stop-color:#8777B7"/>
	</linearGradient>
	<path class="st6" d="M162.4,191.4c0-1.6-0.6-3-1.5-4.3c-1.8-2.5-4.3-3.9-7.4-4.2c-0.3,0-0.6,0-1,0c-1.4,0.2-2.8,0.5-4,1.3   c-1.6,1-2.8,2.2-3.7,3.8c-0.6,1.1-0.9,2.4-1.1,3.7c-0.1,0.5-0.1,1,0,1.5c0.1,0.3,0.1,0.6,0.2,0.9c0.3,1.8,1.1,3.3,2.3,4.6   c1.9,2,4.2,3.1,7,3c1.3,0,2.5-0.2,3.7-0.7c2.4-1.1,4-2.8,5.1-5.2c0.4-1,0.5-2.1,0.5-3.2C162.4,192.2,162.4,191.8,162.4,191.4z"/>
	<linearGradient id="SVGID_8_" gradientUnits="userSpaceOnUse" x1="455.1904" y1="72.0996" x2="455.1904" y2="498.2473">
		<stop offset="0" style="stop-color:#86C6ED"/>
		<stop offset="1" style="stop-color:#8777B7"/>
	</linearGradient>
	<path class="st7" d="M455.3,314.4c-0.1,0.1-0.2,0.2-0.2,0.3C455.2,314.7,455.3,314.6,455.3,314.4z"/>
	<linearGradient id="SVGID_9_" gradientUnits="userSpaceOnUse" x1="454.0497" y1="72.0996" x2="454.0497" y2="498.2473">
		<stop offset="0" style="stop-color:#86C6ED"/>
		<stop offset="1" style="stop-color:#8777B7"/>
	</linearGradient>
	<path class="st8" d="M454.2,316.3c-0.1,0.1-0.2,0.2-0.3,0.3C454.1,316.6,454.2,316.5,454.2,316.3z"/>
	<linearGradient id="SVGID_10_" gradientUnits="userSpaceOnUse" x1="452.5266" y1="72.0996" x2="452.5266" y2="498.2473">
		<stop offset="0" style="stop-color:#86C6ED"/>
		<stop offset="1" style="stop-color:#8777B7"/>
	</linearGradient>
	<path class="st9" d="M452.7,318.6c-0.1,0.1-0.2,0.2-0.3,0.4C452.6,318.9,452.7,318.8,452.7,318.6z"/>
</g>
</svg>