<svg xmlns="http://www.w3.org/2000/svg" xmlns:xlink="http://www.w3.org/1999/xlink" version="1.1" id="Layer_1" x="0px" y="0px" viewBox="0 0 512 512" style="enable-background:new 0 0 512 512;" xml:space="preserve" class="">
<!-- <style type="text/css">
	.st0{fill:#7FC3FE;}
	.st1{fill:#7EC7FE;}
	.st2{fill:#9D7AFE;}
	.st3{fill:#9590FE;}
	.st4{fill:#968AFE;}
	.st5{fill:#86B1FE;}
	.st6{fill:#84B5FE;}
	.st7{fill:#9098FE;}
	.st8{fill:#8CA4FE;}
	.st9{fill:#8F9EFE;}
	.st10{fill:#88AFFE;}
	.st11{fill:#82BDFE;}
	.st12{fill:#9984FE;}
	.st13{fill:#9981FE;}
</style> -->
<style>
	path{
		fill:black;
	}
</style>
<g>
	<path class="st0" d="M434.2,4c4.9,3.2,6.3,7.8,6.2,13.6c-0.3,23.5-0.2,46.9-0.3,70.4c-6.3,0-12.7,0-19,0c-0.2-6.1-0.2-6.2-5.6-3.9   c-5,2.1-10.1,3.1-15.5,3c-20.3-0.1-40.6,0.1-60.9-0.1c-4.9-0.1-6.3,1.7-5.7,6.1c0.7,5.3,0.7,10.6,0.6,15.9c-6.5,0-13.1,0-19.6,0   c-0.1-20.1-0.9-40.3,0-60.4c1-20.8,18.7-39.3,39.5-43.5c1.1-0.2,2.4,0,3.2-1.1C382.9,4,408.5,4,434.2,4z M368.5,67.9   c10,0,20,0.1,30,0c12.3-0.2,20.2-7.4,22-19.4c1-6.8,0.2-13.6,0.6-20.4c0.2-3.5-1.3-4.2-4.4-4.1c-18,0.1-36,0.1-54,0.1   c-7.2,0-13.2,3-18.5,7.5c-10,8.5-10.6,20.1-10.8,31.9c-0.1,3.5,1.2,4.6,4.7,4.6C348.2,67.8,358.3,67.9,368.5,67.9z"/>
	<path class="st1" d="M4.3,63c-1-14.3,0.6-27.9,9.9-39.6C22.1,13.4,32,7,44.5,4.9c0.6-0.1,1.1-0.6,1.7-0.9c46,0,92,0,138,0   c8.7,2.6,17.3,5.4,24.4,11.6c10.9,9.4,16.7,21.3,17.5,35.5c0.3,5,0,10-0.1,14.9c-6.5,0-13,0-19.5,0c-0.1-4.7-0.2-9.3-0.3-14   c-0.3-15.2-13-28-28.2-28.1c-42-0.1-84-0.1-126,0C36.9,24,24.4,36.7,24,52c-0.1,3.7-0.2,7.3-0.3,11C17.2,63,10.7,63,4.3,63z"/>
	<path class="st2" d="M265.9,453c0.1,15.3,0.3,30.6,0.2,46c0,5.7-4.1,9.5-9.8,9.9c-1.3,0.1-2.7,0-4,0c-78.1,0-156.3,0-234.4,0   c-10.8,0-13.8-2.9-13.7-13.5c0-13.8,0.1-27.6,0.2-41.5c22.9,0.5,45.9-1.1,68.8,1c4,6.1-1.7,14.9-9.3,14.3c-8.3-0.6-16.7-0.3-25-0.1   c-4.8,0.1-11-2.2-13.9,1c-2.9,3.1-0.5,9.3-0.9,14c-0.4,3.7,0.9,4.8,4.7,4.8c71-0.1,141.9-0.1,212.9,0c4.2,0,4.9-1.5,4.8-5.2   c-0.2-10,0.1-20,0.1-30C252.9,452,259.4,453.4,265.9,453z"/>
	<path class="st3" d="M252.7,378.2c-3.1-1.7-5.2-4.7-7.7-7.1c-3.2-3.1-3.8-7-2.2-11c1.6-4.1,4.9-6.1,9.4-6.1   c11.2,0,22.3-0.1,33.5,0.1c2.9,0,4.3-1,5.7-3.5c9.5-18,24.8-27.1,44.9-27.2c40.7-0.3,81.3-0.2,122-0.1c28.2,0.1,49.8,22,49.9,50.3   c0,3.2-0.1,6.3-0.2,9.5c-6.5,0-12.9,0-19.4,0c-0.1-2.8-0.5-5.7-0.3-8.5c1.3-16.8-12.3-31.6-31.7-31.5c-39.8,0.2-79.6,0-119.5,0.1   c-15.1,0-25.6,7.7-30.2,22c-2.1,6.5-5.2,8.7-12.2,8.8c-5.2,0-10.3,0.1-15.5,0c-4.3-0.1-1.5,1.8-0.9,3c-3.5,0-7-0.1-10.5,0.1   C262.9,377.3,257.6,375.9,252.7,378.2z"/>
	<path class="st4" d="M26.1,397.8c12.1-15.3,28.2-24.6,46.8-29.7c3.8-1,7.8-1.4,11.8-2.2c1.1-0.2,2.6,0.4,3.2-0.9   c0.6-1.5-0.8-2.4-1.6-3.4c-6-7.1-9.9-15.4-12.3-24.3c-0.5-1.7-0.6-3.6-0.8-5.4c6.4,0,12.9-0.1,19.3-0.1c0.5,1.4,1.1,2.7,1.6,4.1   c7.6,21.6,30.4,33.8,52.4,27.7c16.4-4.6,26.4-15.8,31.2-31.9c6.5,0.1,13,0.1,19.5,0.2c-1.5,11.5-6.3,21.5-13.7,30.4   c-0.6,0.7-1.6,1.5-1.1,2.6c0.7,1.5,2.3,0.9,3.6,1.1c23.5,3.2,43.1,13.6,58.3,32c-6.1,2.2-12.4,0.5-18.5,1c-2.1,0.2-4.4-0.5-5.6,2.1   c-8.8-6.4-18.2-11.4-28.8-14.1c-4.4-1.1-8.4-1.6-11.7,2.2c-5.3-1.4-10.7-1.1-16.1-1.2c-3.2,0-6.4,1.6-9.6,0c0.8-1.3,3.1-3-1-3   c-11.9,0.1-23.9,0.1-35.8,0c-4.2,0-1.6,1.7-1,3c-8.5,0.4-17.2-0.9-25.6,1.2c-3.5-3.9-7.7-3.2-12.2-2.1c-10.3,2.4-19,8.2-28.2,13.1   c-5.7-2.5-11.7-0.4-17.6-1.1C30.4,398.7,27.9,399.9,26.1,397.8z"/>
	<path class="st5" d="M260.1,135c2.4,2.3,5,4.4,7.2,6.9c2.8,3.2,3.9,6.9,2,11.1c-1.9,4.1-5.2,5.9-9.6,5.9c-11,0.1-22,0.1-33,0   c-2.8,0-4.4,0.6-5.8,3.3c-9.6,17.8-24.5,27-44.9,26.9c-40.5,0-80.9-0.5-121.4,0.2C27,189.8,2.8,166.7,4.1,138.5   c0.1-2.2,0.1-4.3,0.1-6.5c6.5,0,13,0,19.4,0c0.1,2.5,0.3,5,0.3,7.5c0.2,17.6,12.5,30.3,30.2,30.3c40.5,0.2,80.9,0.2,121.4,0   c14.9-0.1,25.2-7.9,29.8-22c2.2-6.6,5.1-8.6,12-8.9c6.2-0.3,12.5,1.1,18.7-0.8c2.3-2.1,5-2,7.8-2.2   C249.3,135.6,254.8,137.1,260.1,135z"/>
	<path class="st2" d="M508,452c2.6,23.6-11.3,45.2-29.1,52.6c-6.2,2.6-12.6,4.3-19.3,4.3c-41.6,0-83.3,0.3-124.9-0.1   c-28.6-0.2-48.8-24.3-48.5-48.8c0-4.3,0.1-8.7,0.1-13c6.5,0,12.9,0,19.4,0c0.1,4.7,0.2,9.3,0.3,14c0.5,15.2,13,27.9,28.2,28   c42,0.2,83.9,0.1,125.9,0c12.6,0,23.5-9,27.2-21.1c1.6-5.3,0.5-10.6,1.4-15.8C495.1,452,501.6,452,508,452z"/>
	<path class="st6" d="M314.5,109c6.5,0,13.1,0,19.6,0c0.4,1.9,0.8,3.9,1.3,5.8c4.8,17.9,21.9,30.8,40.4,31.4   c13.8,0.4,24.6-5.3,34.2-14.3c2,0,3.9,0,5.9,0.1c5.5,0.4,11.1-1.1,16.5,1c-2.2,4.8-6.1,8.4-9.1,13.4c18.3,1.6,34.7,7.5,49,18.8   c-0.7,2.7-2.9,1.7-4.6,1.7c-7.8,0.1-15.7,0.1-23.5,0c-2,0-4.1-0.1-5,2.2c-5-0.4-9.7-4-14.9-1.2c-8.6-1.6-17.4-0.8-26.1-1   c-0.6-1.1-1.6-1-2.6-1c-12.2,0-24.4,0-36.6,0c-1,0-2-0.1-2.6,1c-8.7,0.2-17.4-0.6-26.1,1c-3.9-2.3-7.7-0.2-11.5,0.5   c-2.1,0.4-4.1,1.1-6.2,1.7c-1.9-1.2-4-1.2-6.2-1.2c-7.3,0-14.5,0.1-21.8,0c-1.6,0-3.8,0.8-4.3-2c13.2-11.4,28.7-17.5,45.8-20   c1.4-0.2,3.3,0.5,4-1.2c0.5-1.4-1-2.3-1.8-3.3C320.3,132.7,315.5,121.6,314.5,109z"/>
	<path class="st7" d="M92.5,331.9c-6.4,0-12.9,0.1-19.3,0.1c-0.3-0.9-0.8-1.9-0.8-2.8c-0.2-20.7-0.5-41.5,0.1-62.2   c4.7,0,9.5,0,14.2,0c2.1,0,3.9,0.2,4.8,2.4c0,4.2,0.2,8.3-0.1,12.5c-0.3,4.1,1.4,5.1,5.2,5c19.6-0.2,39.2,0,58.8-0.1   c13.2,0,21.2-6.9,23.3-19.8c6.5,0.4,13-1,19.4,1c0,19.6,0.1,39.1,0.1,58.7c0,1.8-0.6,3.6-1,5.3c-6.5-0.1-13-0.1-19.5-0.2   c1.3-10.1,0.5-20.2,0.7-31.1c-7.9,4.2-15.6,5.6-23.8,5.5c-19.3-0.2-38.7,0-58-0.2c-4.2,0-5.4,1.4-5.3,5.5   C91.3,318.3,91.6,325.1,92.5,331.9z"/>
	<path class="st8" d="M198,268c-6.4-2-13-0.6-19.4-1c-0.1-6.5-0.4-12.9-0.2-19.4c0.1-3.7-1-4.8-4.8-4.8c-17.4,0.2-34.9,0.1-52.3,0.1   c-2.3,0-4.6,0.2-6.9,0.8c-13,3.8-19.9,13-23,25.7c-0.9-2.2-2.8-2.5-4.8-2.4c-4.7,0.1-9.5,0-14.2,0c2.7-23.9,24.1-43.7,47.9-44   c22.5-0.2,44.9-0.1,67.4,0c6.4,0,10.4,3.6,10.4,9.5C198.2,244.4,198.1,256.2,198,268z"/>
	<path class="st9" d="M266.2,228c0,12.2,0.1,24.3-0.3,36.5c-0.2,4.8,1.6,5.7,5.9,5.7c20.8-0.2,41.6-0.1,62.5-0.1   c4.1,0,7.5,1.5,9.5,5.2c2,3.6,1.6,7-0.6,10.4c-2,3-5,4.3-8.5,4.3c-26,0-52,0.1-78,0c-6.2,0-10.5-3.8-10.5-9.7   c-0.1-16.5,0-33,0.1-49.5c0-0.9,0.5-1.9,0.7-2.8C253.5,228,259.8,228,266.2,228z"/>
	<path class="st9" d="M508.1,252c0,9.3,0.2,18.6,0.1,28c-0.1,5.7-4,9.9-9.8,9.9c-27.5,0.1-55,0.1-82.4,0c-5.7,0-9.8-4.6-9.8-9.9   c0-5.8,4.3-9.8,10.9-9.9c19.8-0.1,39.6,0,59.4,0c11.8,0,11.8,0,11.8-11.6c0-2.2,0.2-4.3,0.3-6.5C495.1,252,501.6,252,508.1,252z"/>
	<path class="st10" d="M398.1,167c8.7,0.2,17.4-0.6,26.1,1c-13.5,13.6-26.8,27.2-40.4,40.7c-3.7,3.6-9.5,3.6-13.2,0   c-13.6-13.5-26.9-27.1-40.4-40.7c8.6-1.6,17.4-0.8,26.1-1c6.1,5.9,12.2,11.8,18.1,17.8c2.1,2.2,3.4,2.2,5.6,0   C385.9,178.7,392,172.9,398.1,167z"/>
	<path class="st11" d="M260.1,135c-5.3,2-10.8,0.6-16.2,0.9c-2.8,0.2-5.6,0.1-7.8,2.2c-8.8-8.7-17.7-17.5-26.5-26.2   c-2.2-2.2-3.2-5.1-3.2-8.1c0-12.6,0.1-25.2,0.2-37.8c6.5,0,13,0,19.5,0c0,7.7,0.7,15.4,0,22.9c-0.8,8.6,2.1,14.6,8.5,20.3   C243.5,117.3,251.6,126.4,260.1,135z"/>
	<path class="st12" d="M305.7,447c-6.5,0-12.9,0-19.4,0c-0.1-10.1-0.2-20.3-0.1-30.4c0-3.1-0.9-5.3-3.1-7.4   c-9-8.8-17.9-17.8-26.8-26.8c-1.3-1.3-2.4-2.8-3.6-4.1c4.9-2.3,10.1-0.9,15.2-1.2c3.5-0.2,7-0.1,10.5-0.1   c8.3,8.2,16.5,16.3,24.8,24.5c1.9,1.9,2.8,4.2,2.8,6.8C305.9,421.1,305.8,434.1,305.7,447z"/>
	<path class="st10" d="M266.2,228c-6.4,0-12.8,0-19.1,0c1.2-18.5,8.8-34.4,20.3-48.6c3.7-4.6,7.7-9.1,12.8-12.3   c0.5,2.8,2.7,1.9,4.3,2c7.3,0.1,14.5,0.1,21.8,0c2.2,0,4.3,0,6.2,1.2c-7.6,4-15.3,7.7-21.9,13.6c-12.8,11.5-20.9,25.4-23.6,42.5   C266.9,226.8,266.5,227.4,266.2,228z"/>
	<path class="st13" d="M26.1,397.8c1.9,2.1,4.4,0.9,6.6,1.2c5.8,0.7,11.9-1.4,17.6,1.1c-1.2,1.4-2.3,2.9-3.6,4.1   c-12.3,11-18.7,25-22,40.9c-0.8,3.9,0.2,4.9,4,4.9c11.7-0.2,23.3,0,35-0.1c4.1,0,7.5,1.2,9.4,5.2c-22.9-2.1-45.8-0.5-68.8-1   C4.8,432.6,11.9,413.9,26.1,397.8z"/>
	<path class="st11" d="M23.7,132c-6.5,0-13,0-19.4,0c0-23,0-46,0-69c6.5,0,13,0,19.4,0C24.2,86,24.2,109,23.7,132z"/>
	<path class="st13" d="M508,452c-6.5,0-12.9,0-19.4,0c-0.5-23-0.5-46,0-69c6.5,0,12.9,0,19.4,0C508,406,508,429,508,452z"/>
	<path class="st13" d="M220.2,401c1.2-2.6,3.5-1.9,5.6-2.1c6.2-0.5,12.5,1.2,18.5-1c13.8,15.7,20.8,34.2,21.6,55.1   c-6.5,0.4-13-1-19.4,1c-0.8-11.6-3.8-22.5-9.5-32.7C232.6,413.4,226.3,407.3,220.2,401z"/>
	<path class="st10" d="M439.1,169.2c1-2.4,3-2.2,5-2.2c7.8,0,15.7,0.1,23.5,0c1.6,0,3.9,1,4.6-1.7c13.4,10.1,23.4,22.7,29.1,38.6   c-1.5,1.9-3.6,1-5.5,1.1c-4.8,0.3-9.8-0.7-14.5,1C472,188.3,457.7,176.3,439.1,169.2z"/>
	<path class="st8" d="M481.3,206c4.7-1.7,9.7-0.7,14.5-1c1.9-0.1,4,0.7,5.5-1.1c6.7,15.4,7.8,31.7,6.8,48.2c-6.5,0-12.9,0-19.4,0   c-0.2-7.4,0-14.9-0.6-22.3C487.4,221.4,484.3,213.7,481.3,206z"/>
	<path class="st11" d="M432.3,133c-5.4-2.1-11-0.6-16.5-1c-2-0.2-3.9-0.1-5.9-0.1c5.2-7,9.5-14.4,10.2-23.2   c0.6-6.9,0.7-13.8,0.9-20.7c6.3,0,12.7,0,19,0c0.4,12.7,0.6,25.4-4,37.6C435.1,128.2,434.2,130.9,432.3,133z"/>
	<path class="st9" d="M387.1,279.8c0.1,5.2-4.3,9.9-9.6,10.1c-5.1,0.2-10.1-4.4-10.3-9.5c-0.2-5.4,4.4-10.3,9.8-10.3   C382.4,270,387,274.5,387.1,279.8z"/>
	<path class="st12" d="M179.7,389.2c-2.7,4.5-7.4,7.1-10.9,10.8c-8.5,8.7-16.8,17.5-25.3,26.1c-5.6,5.7-10.9,5.7-16.5,0.1   c-11.2-11.2-22.4-22.4-33.5-33.6c-1-1-1.9-2.3-2.8-3.5c8.5-2.1,17.1-0.8,25.6-1.2c5.8,4.3,9.4,10.7,14.8,15.4c2.7,2.3,4.5,3,7.4,0   c4.9-5.4,10.4-10.3,15.6-15.4c3.2,1.7,6.4,0,9.6,0C169,388.1,174.4,387.7,179.7,389.2z"/>
	<path class="st0" d="M138.5,79c3.8-9.9,0.5-18.1-8.5-21c-8.9-2.9-17.6,3.4-18.7,13.8c-0.9,8.3-7.6,12.2-14.5,8.5   c-3.9-2-5.3-5.6-5.2-9.6c0.3-15.8,14.4-31.2,29.1-32.8c23-2.5,36.4,13.5,38.8,27.3c0.8,4.7,1.2,9.2-0.3,13.8   C152.2,79,145.3,79,138.5,79z"/>
	<path class="st11" d="M138.5,79c6.9,0,13.7,0,20.6,0c-3,10.5-8.4,19-18.8,23.5c-3.1,1.3-5,3-5.1,6.9c-0.1,4.5-4.7,7.7-9.5,7.7   c-4.7,0-8.7-3.4-9.4-8c-2-12.2,1.9-18.9,13.7-23.5C133.4,84.2,136.2,82,138.5,79z"/>
	<path class="st6" d="M125.7,155c-5.4,0-9.5-4.3-9.6-9.9c0-5.6,4.2-9.9,9.6-10c5.4,0,10.3,4.9,10.1,10.2   C135.6,150.6,131,155,125.7,155z"/>
	<path class="st13" d="M103.4,469.1c-5.5-0.2-9.5-4.7-9.2-10.2c0.3-5.4,4.7-9.3,10.4-9c5.2,0.2,9.4,4.6,9.4,9.7   C113.9,465.2,109.3,469.4,103.4,469.1z"/>
	<path class="st12" d="M444.2,397.4c0.1,2.9-1.3,5.2-3.4,7.3c-10.5,10.5-20.9,21-31.4,31.4c-5.5,5.4-10.5,5.3-16-0.2   c-5.8-5.7-11.6-11.5-17.3-17.3c-4.8-4.8-5.1-10.4-1-14.6c4-4.1,9.9-4,14.7,0.5c3,2.8,6,5.8,8.8,8.8c2.1,2.3,3.6,2.1,5.7,0   c7.7-7.9,15.5-15.6,23.3-23.3c3.2-3.1,7-3.9,11-2C442.4,389.8,444.4,392.9,444.2,397.4z"/>
</g>
</svg>